<?xml version="1.0" encoding="utf-8" standalone="no"?>
<!DOCTYPE svg PUBLIC "-//W3C//DTD SVG 1.1//EN"
  "http://www.w3.org/Graphics/SVG/1.1/DTD/svg11.dtd">
<svg xmlns:xlink="http://www.w3.org/1999/xlink" width="432pt" height="216pt" viewBox="0 0 432 216" xmlns="http://www.w3.org/2000/svg" version="1.1">
 <metadata>
  <rdf:RDF xmlns:dc="http://purl.org/dc/elements/1.1/" xmlns:cc="http://creativecommons.org/ns#" xmlns:rdf="http://www.w3.org/1999/02/22-rdf-syntax-ns#">
   <cc:Work>
    <dc:type rdf:resource="http://purl.org/dc/dcmitype/StillImage"/>
    <dc:date>2025-10-02T04:00:11.713707</dc:date>
    <dc:format>image/svg+xml</dc:format>
    <dc:creator>
     <cc:Agent>
      <dc:title>Matplotlib v3.10.6, https://matplotlib.org/</dc:title>
     </cc:Agent>
    </dc:creator>
   </cc:Work>
  </rdf:RDF>
 </metadata>
 <defs>
  <style type="text/css">*{stroke-linejoin: round; stroke-linecap: butt}</style>
 </defs>
 <g id="figure_1">
  <g id="patch_1">
   <path d="M 0 216 
L 432 216 
L 432 0 
L 0 0 
z
" style="fill: #ffffff"/>
  </g>
  <g id="patch_2">
   <path d="M 0 216 
L 432 216 
L 432 0 
L 0 0 
L 0 216 
z
" style="fill: none; stroke: #ffffff; stroke-linejoin: miter"/>
  </g>
  <g id="axes_1">
   <g id="patch_3">
    <path d="M 68.92575 198.21325 
L 184.546693 198.21325 
L 184.546693 21.3535 
L 68.92575 21.3535 
z
" style="fill: #ffffff"/>
   </g>
   <g id="matplotlib.axis_1">
    <g id="xtick_1">
     <g id="line2d_1">
      <path d="M 74.181247 198.21325 
L 74.181247 21.3535 
" clip-path="url(#pe67d3a69d6)" style="fill: none; stroke: #e5e5e5; stroke-linecap: square"/>
     </g>
     <g id="line2d_2">
      <path d="M 74.181247 198.21325 
" style="fill: none; stroke: #333333; stroke-width: 1.5; stroke-linecap: square"/>
      <defs>
       <path id="m8437cfde91" d="M 0 0 
L 0 2.75 
" style="stroke: #333333"/>
      </defs>
      <g>
       <use xlink:href="#m8437cfde91" x="74.181247" y="198.21325" style="fill: #333333; stroke: #333333"/>
      </g>
     </g>
     <g id="text_1">
      <!-- 0.00 -->
      <g style="fill: #4d4d4d" transform="translate(64.384372 209.849875) scale(0.088 -0.088)">
       <defs>
        <path id="DejaVuSans-30" d="M 2034 4250 
Q 1547 4250 1301 3770 
Q 1056 3291 1056 2328 
Q 1056 1369 1301 889 
Q 1547 409 2034 409 
Q 2525 409 2770 889 
Q 3016 1369 3016 2328 
Q 3016 3291 2770 3770 
Q 2525 4250 2034 4250 
z
M 2034 4750 
Q 2819 4750 3233 4129 
Q 3647 3509 3647 2328 
Q 3647 1150 3233 529 
Q 2819 -91 2034 -91 
Q 1250 -91 836 529 
Q 422 1150 422 2328 
Q 422 3509 836 4129 
Q 1250 4750 2034 4750 
z
" transform="scale(0.015625)"/>
        <path id="DejaVuSans-2e" d="M 684 794 
L 1344 794 
L 1344 0 
L 684 0 
L 684 794 
z
" transform="scale(0.015625)"/>
       </defs>
       <use xlink:href="#DejaVuSans-30"/>
       <use xlink:href="#DejaVuSans-2e" transform="translate(63.623047 0)"/>
       <use xlink:href="#DejaVuSans-30" transform="translate(95.410156 0)"/>
       <use xlink:href="#DejaVuSans-30" transform="translate(159.033203 0)"/>
      </g>
     </g>
    </g>
    <g id="xtick_2">
     <g id="line2d_3">
      <path d="M 100.458735 198.21325 
L 100.458735 21.3535 
" clip-path="url(#pe67d3a69d6)" style="fill: none; stroke: #e5e5e5; stroke-linecap: square"/>
     </g>
     <g id="line2d_4">
      <path d="M 100.458735 198.21325 
" style="fill: none; stroke: #333333; stroke-width: 1.5; stroke-linecap: square"/>
      <g>
       <use xlink:href="#m8437cfde91" x="100.458735" y="198.21325" style="fill: #333333; stroke: #333333"/>
      </g>
     </g>
     <g id="text_2">
      <!-- 0.25 -->
      <g style="fill: #4d4d4d" transform="translate(90.66186 209.849875) scale(0.088 -0.088)">
       <defs>
        <path id="DejaVuSans-32" d="M 1228 531 
L 3431 531 
L 3431 0 
L 469 0 
L 469 531 
Q 828 903 1448 1529 
Q 2069 2156 2228 2338 
Q 2531 2678 2651 2914 
Q 2772 3150 2772 3378 
Q 2772 3750 2511 3984 
Q 2250 4219 1831 4219 
Q 1534 4219 1204 4116 
Q 875 4013 500 3803 
L 500 4441 
Q 881 4594 1212 4672 
Q 1544 4750 1819 4750 
Q 2544 4750 2975 4387 
Q 3406 4025 3406 3419 
Q 3406 3131 3298 2873 
Q 3191 2616 2906 2266 
Q 2828 2175 2409 1742 
Q 1991 1309 1228 531 
z
" transform="scale(0.015625)"/>
        <path id="DejaVuSans-35" d="M 691 4666 
L 3169 4666 
L 3169 4134 
L 1269 4134 
L 1269 2991 
Q 1406 3038 1543 3061 
Q 1681 3084 1819 3084 
Q 2600 3084 3056 2656 
Q 3513 2228 3513 1497 
Q 3513 744 3044 326 
Q 2575 -91 1722 -91 
Q 1428 -91 1123 -41 
Q 819 9 494 109 
L 494 744 
Q 775 591 1075 516 
Q 1375 441 1709 441 
Q 2250 441 2565 725 
Q 2881 1009 2881 1497 
Q 2881 1984 2565 2268 
Q 2250 2553 1709 2553 
Q 1456 2553 1204 2497 
Q 953 2441 691 2322 
L 691 4666 
z
" transform="scale(0.015625)"/>
       </defs>
       <use xlink:href="#DejaVuSans-30"/>
       <use xlink:href="#DejaVuSans-2e" transform="translate(63.623047 0)"/>
       <use xlink:href="#DejaVuSans-32" transform="translate(95.410156 0)"/>
       <use xlink:href="#DejaVuSans-35" transform="translate(159.033203 0)"/>
      </g>
     </g>
    </g>
    <g id="xtick_3">
     <g id="line2d_5">
      <path d="M 126.736222 198.21325 
L 126.736222 21.3535 
" clip-path="url(#pe67d3a69d6)" style="fill: none; stroke: #e5e5e5; stroke-linecap: square"/>
     </g>
     <g id="line2d_6">
      <path d="M 126.736222 198.21325 
" style="fill: none; stroke: #333333; stroke-width: 1.5; stroke-linecap: square"/>
      <g>
       <use xlink:href="#m8437cfde91" x="126.736222" y="198.21325" style="fill: #333333; stroke: #333333"/>
      </g>
     </g>
     <g id="text_3">
      <!-- 0.50 -->
      <g style="fill: #4d4d4d" transform="translate(116.939347 209.849875) scale(0.088 -0.088)">
       <use xlink:href="#DejaVuSans-30"/>
       <use xlink:href="#DejaVuSans-2e" transform="translate(63.623047 0)"/>
       <use xlink:href="#DejaVuSans-35" transform="translate(95.410156 0)"/>
       <use xlink:href="#DejaVuSans-30" transform="translate(159.033203 0)"/>
      </g>
     </g>
    </g>
    <g id="xtick_4">
     <g id="line2d_7">
      <path d="M 153.013709 198.21325 
L 153.013709 21.3535 
" clip-path="url(#pe67d3a69d6)" style="fill: none; stroke: #e5e5e5; stroke-linecap: square"/>
     </g>
     <g id="line2d_8">
      <path d="M 153.013709 198.21325 
" style="fill: none; stroke: #333333; stroke-width: 1.5; stroke-linecap: square"/>
      <g>
       <use xlink:href="#m8437cfde91" x="153.013709" y="198.21325" style="fill: #333333; stroke: #333333"/>
      </g>
     </g>
     <g id="text_4">
      <!-- 0.75 -->
      <g style="fill: #4d4d4d" transform="translate(143.216834 209.849875) scale(0.088 -0.088)">
       <defs>
        <path id="DejaVuSans-37" d="M 525 4666 
L 3525 4666 
L 3525 4397 
L 1831 0 
L 1172 0 
L 2766 4134 
L 525 4134 
L 525 4666 
z
" transform="scale(0.015625)"/>
       </defs>
       <use xlink:href="#DejaVuSans-30"/>
       <use xlink:href="#DejaVuSans-2e" transform="translate(63.623047 0)"/>
       <use xlink:href="#DejaVuSans-37" transform="translate(95.410156 0)"/>
       <use xlink:href="#DejaVuSans-35" transform="translate(159.033203 0)"/>
      </g>
     </g>
    </g>
    <g id="xtick_5">
     <g id="line2d_9">
      <path d="M 179.291196 198.21325 
L 179.291196 21.3535 
" clip-path="url(#pe67d3a69d6)" style="fill: none; stroke: #e5e5e5; stroke-linecap: square"/>
     </g>
     <g id="line2d_10">
      <path d="M 179.291196 198.21325 
" style="fill: none; stroke: #333333; stroke-width: 1.5; stroke-linecap: square"/>
      <g>
       <use xlink:href="#m8437cfde91" x="179.291196" y="198.21325" style="fill: #333333; stroke: #333333"/>
      </g>
     </g>
     <g id="text_5">
      <!-- 1.00 -->
      <g style="fill: #4d4d4d" transform="translate(169.494321 209.849875) scale(0.088 -0.088)">
       <defs>
        <path id="DejaVuSans-31" d="M 794 531 
L 1825 531 
L 1825 4091 
L 703 3866 
L 703 4441 
L 1819 4666 
L 2450 4666 
L 2450 531 
L 3481 531 
L 3481 0 
L 794 0 
L 794 531 
z
" transform="scale(0.015625)"/>
       </defs>
       <use xlink:href="#DejaVuSans-31"/>
       <use xlink:href="#DejaVuSans-2e" transform="translate(63.623047 0)"/>
       <use xlink:href="#DejaVuSans-30" transform="translate(95.410156 0)"/>
       <use xlink:href="#DejaVuSans-30" transform="translate(159.033203 0)"/>
      </g>
     </g>
    </g>
    <g id="xtick_6">
     <g id="line2d_11">
      <path d="M 87.319991 198.21325 
L 87.319991 21.3535 
" clip-path="url(#pe67d3a69d6)" style="fill: none; stroke: #fafafa; stroke-width: 0.5; stroke-linecap: square"/>
     </g>
    </g>
    <g id="xtick_7">
     <g id="line2d_12">
      <path d="M 113.597478 198.21325 
L 113.597478 21.3535 
" clip-path="url(#pe67d3a69d6)" style="fill: none; stroke: #fafafa; stroke-width: 0.5; stroke-linecap: square"/>
     </g>
    </g>
    <g id="xtick_8">
     <g id="line2d_13">
      <path d="M 139.874965 198.21325 
L 139.874965 21.3535 
" clip-path="url(#pe67d3a69d6)" style="fill: none; stroke: #fafafa; stroke-width: 0.5; stroke-linecap: square"/>
     </g>
    </g>
    <g id="xtick_9">
     <g id="line2d_14">
      <path d="M 166.152452 198.21325 
L 166.152452 21.3535 
" clip-path="url(#pe67d3a69d6)" style="fill: none; stroke: #fafafa; stroke-width: 0.5; stroke-linecap: square"/>
     </g>
    </g>
   </g>
   <g id="matplotlib.axis_2">
    <g id="ytick_1">
     <g id="line2d_15">
      <path d="M 68.92575 177.806356 
L 184.546693 177.806356 
" clip-path="url(#pe67d3a69d6)" style="fill: none; stroke: #e5e5e5; stroke-linecap: square"/>
     </g>
     <g id="line2d_16">
      <path d="M 68.92575 177.806356 
" style="fill: none; stroke: #333333; stroke-width: 1.5; stroke-linecap: square"/>
      <defs>
       <path id="m40148afc1b" d="M 0 0 
L -2.75 0 
" style="stroke: #333333"/>
      </defs>
      <g>
       <use xlink:href="#m40148afc1b" x="68.92575" y="177.806356" style="fill: #333333; stroke: #333333"/>
      </g>
     </g>
     <g id="text_6">
      <!-- False -->
      <g style="fill: #4d4d4d" transform="translate(41.880875 181.149668) scale(0.088 -0.088)">
       <defs>
        <path id="DejaVuSans-46" d="M 628 4666 
L 3309 4666 
L 3309 4134 
L 1259 4134 
L 1259 2759 
L 3109 2759 
L 3109 2228 
L 1259 2228 
L 1259 0 
L 628 0 
L 628 4666 
z
" transform="scale(0.015625)"/>
        <path id="DejaVuSans-61" d="M 2194 1759 
Q 1497 1759 1228 1600 
Q 959 1441 959 1056 
Q 959 750 1161 570 
Q 1363 391 1709 391 
Q 2188 391 2477 730 
Q 2766 1069 2766 1631 
L 2766 1759 
L 2194 1759 
z
M 3341 1997 
L 3341 0 
L 2766 0 
L 2766 531 
Q 2569 213 2275 61 
Q 1981 -91 1556 -91 
Q 1019 -91 701 211 
Q 384 513 384 1019 
Q 384 1609 779 1909 
Q 1175 2209 1959 2209 
L 2766 2209 
L 2766 2266 
Q 2766 2663 2505 2880 
Q 2244 3097 1772 3097 
Q 1472 3097 1187 3025 
Q 903 2953 641 2809 
L 641 3341 
Q 956 3463 1253 3523 
Q 1550 3584 1831 3584 
Q 2591 3584 2966 3190 
Q 3341 2797 3341 1997 
z
" transform="scale(0.015625)"/>
        <path id="DejaVuSans-6c" d="M 603 4863 
L 1178 4863 
L 1178 0 
L 603 0 
L 603 4863 
z
" transform="scale(0.015625)"/>
        <path id="DejaVuSans-73" d="M 2834 3397 
L 2834 2853 
Q 2591 2978 2328 3040 
Q 2066 3103 1784 3103 
Q 1356 3103 1142 2972 
Q 928 2841 928 2578 
Q 928 2378 1081 2264 
Q 1234 2150 1697 2047 
L 1894 2003 
Q 2506 1872 2764 1633 
Q 3022 1394 3022 966 
Q 3022 478 2636 193 
Q 2250 -91 1575 -91 
Q 1294 -91 989 -36 
Q 684 19 347 128 
L 347 722 
Q 666 556 975 473 
Q 1284 391 1588 391 
Q 1994 391 2212 530 
Q 2431 669 2431 922 
Q 2431 1156 2273 1281 
Q 2116 1406 1581 1522 
L 1381 1569 
Q 847 1681 609 1914 
Q 372 2147 372 2553 
Q 372 3047 722 3315 
Q 1072 3584 1716 3584 
Q 2034 3584 2315 3537 
Q 2597 3491 2834 3397 
z
" transform="scale(0.015625)"/>
        <path id="DejaVuSans-65" d="M 3597 1894 
L 3597 1613 
L 953 1613 
Q 991 1019 1311 708 
Q 1631 397 2203 397 
Q 2534 397 2845 478 
Q 3156 559 3463 722 
L 3463 178 
Q 3153 47 2828 -22 
Q 2503 -91 2169 -91 
Q 1331 -91 842 396 
Q 353 884 353 1716 
Q 353 2575 817 3079 
Q 1281 3584 2069 3584 
Q 2775 3584 3186 3129 
Q 3597 2675 3597 1894 
z
M 3022 2063 
Q 3016 2534 2758 2815 
Q 2500 3097 2075 3097 
Q 1594 3097 1305 2825 
Q 1016 2553 972 2059 
L 3022 2063 
z
" transform="scale(0.015625)"/>
       </defs>
       <use xlink:href="#DejaVuSans-46"/>
       <use xlink:href="#DejaVuSans-61" transform="translate(48.394531 0)"/>
       <use xlink:href="#DejaVuSans-6c" transform="translate(109.673828 0)"/>
       <use xlink:href="#DejaVuSans-73" transform="translate(137.457031 0)"/>
       <use xlink:href="#DejaVuSans-65" transform="translate(189.556641 0)"/>
      </g>
     </g>
    </g>
    <g id="ytick_2">
     <g id="line2d_17">
      <path d="M 68.92575 143.794865 
L 184.546693 143.794865 
" clip-path="url(#pe67d3a69d6)" style="fill: none; stroke: #e5e5e5; stroke-linecap: square"/>
     </g>
     <g id="line2d_18">
      <path d="M 68.92575 143.794865 
" style="fill: none; stroke: #333333; stroke-width: 1.5; stroke-linecap: square"/>
      <g>
       <use xlink:href="#m40148afc1b" x="68.92575" y="143.794865" style="fill: #333333; stroke: #333333"/>
      </g>
     </g>
     <g id="text_7">
      <!-- True -->
      <g style="fill: #4d4d4d" transform="translate(45.2895 147.138178) scale(0.088 -0.088)">
       <defs>
        <path id="DejaVuSans-54" d="M -19 4666 
L 3928 4666 
L 3928 4134 
L 2272 4134 
L 2272 0 
L 1638 0 
L 1638 4134 
L -19 4134 
L -19 4666 
z
" transform="scale(0.015625)"/>
        <path id="DejaVuSans-72" d="M 2631 2963 
Q 2534 3019 2420 3045 
Q 2306 3072 2169 3072 
Q 1681 3072 1420 2755 
Q 1159 2438 1159 1844 
L 1159 0 
L 581 0 
L 581 3500 
L 1159 3500 
L 1159 2956 
Q 1341 3275 1631 3429 
Q 1922 3584 2338 3584 
Q 2397 3584 2469 3576 
Q 2541 3569 2628 3553 
L 2631 2963 
z
" transform="scale(0.015625)"/>
        <path id="DejaVuSans-75" d="M 544 1381 
L 544 3500 
L 1119 3500 
L 1119 1403 
Q 1119 906 1312 657 
Q 1506 409 1894 409 
Q 2359 409 2629 706 
Q 2900 1003 2900 1516 
L 2900 3500 
L 3475 3500 
L 3475 0 
L 2900 0 
L 2900 538 
Q 2691 219 2414 64 
Q 2138 -91 1772 -91 
Q 1169 -91 856 284 
Q 544 659 544 1381 
z
M 1991 3584 
L 1991 3584 
z
" transform="scale(0.015625)"/>
       </defs>
       <use xlink:href="#DejaVuSans-54"/>
       <use xlink:href="#DejaVuSans-72" transform="translate(46.333984 0)"/>
       <use xlink:href="#DejaVuSans-75" transform="translate(87.447266 0)"/>
       <use xlink:href="#DejaVuSans-65" transform="translate(150.826172 0)"/>
      </g>
     </g>
    </g>
    <g id="ytick_3">
     <g id="line2d_19">
      <path d="M 68.92575 109.783375 
L 184.546693 109.783375 
" clip-path="url(#pe67d3a69d6)" style="fill: none; stroke: #e5e5e5; stroke-linecap: square"/>
     </g>
     <g id="line2d_20">
      <path d="M 68.92575 109.783375 
" style="fill: none; stroke: #333333; stroke-width: 1.5; stroke-linecap: square"/>
      <g>
       <use xlink:href="#m40148afc1b" x="68.92575" y="109.783375" style="fill: #333333; stroke: #333333"/>
      </g>
     </g>
     <g id="text_8">
      <!-- accuracy -->
      <g style="fill: #4d4d4d" transform="translate(24.27125 113.126687) scale(0.088 -0.088)">
       <defs>
        <path id="DejaVuSans-63" d="M 3122 3366 
L 3122 2828 
Q 2878 2963 2633 3030 
Q 2388 3097 2138 3097 
Q 1578 3097 1268 2742 
Q 959 2388 959 1747 
Q 959 1106 1268 751 
Q 1578 397 2138 397 
Q 2388 397 2633 464 
Q 2878 531 3122 666 
L 3122 134 
Q 2881 22 2623 -34 
Q 2366 -91 2075 -91 
Q 1284 -91 818 406 
Q 353 903 353 1747 
Q 353 2603 823 3093 
Q 1294 3584 2113 3584 
Q 2378 3584 2631 3529 
Q 2884 3475 3122 3366 
z
" transform="scale(0.015625)"/>
        <path id="DejaVuSans-79" d="M 2059 -325 
Q 1816 -950 1584 -1140 
Q 1353 -1331 966 -1331 
L 506 -1331 
L 506 -850 
L 844 -850 
Q 1081 -850 1212 -737 
Q 1344 -625 1503 -206 
L 1606 56 
L 191 3500 
L 800 3500 
L 1894 763 
L 2988 3500 
L 3597 3500 
L 2059 -325 
z
" transform="scale(0.015625)"/>
       </defs>
       <use xlink:href="#DejaVuSans-61"/>
       <use xlink:href="#DejaVuSans-63" transform="translate(61.279297 0)"/>
       <use xlink:href="#DejaVuSans-63" transform="translate(116.259766 0)"/>
       <use xlink:href="#DejaVuSans-75" transform="translate(171.240234 0)"/>
       <use xlink:href="#DejaVuSans-72" transform="translate(234.619141 0)"/>
       <use xlink:href="#DejaVuSans-61" transform="translate(275.732422 0)"/>
       <use xlink:href="#DejaVuSans-63" transform="translate(337.011719 0)"/>
       <use xlink:href="#DejaVuSans-79" transform="translate(391.992188 0)"/>
      </g>
     </g>
    </g>
    <g id="ytick_4">
     <g id="line2d_21">
      <path d="M 68.92575 75.771885 
L 184.546693 75.771885 
" clip-path="url(#pe67d3a69d6)" style="fill: none; stroke: #e5e5e5; stroke-linecap: square"/>
     </g>
     <g id="line2d_22">
      <path d="M 68.92575 75.771885 
" style="fill: none; stroke: #333333; stroke-width: 1.5; stroke-linecap: square"/>
      <g>
       <use xlink:href="#m40148afc1b" x="68.92575" y="75.771885" style="fill: #333333; stroke: #333333"/>
      </g>
     </g>
     <g id="text_9">
      <!-- macro avg -->
      <g style="fill: #4d4d4d" transform="translate(17.383875 79.115197) scale(0.088 -0.088)">
       <defs>
        <path id="DejaVuSans-6d" d="M 3328 2828 
Q 3544 3216 3844 3400 
Q 4144 3584 4550 3584 
Q 5097 3584 5394 3201 
Q 5691 2819 5691 2113 
L 5691 0 
L 5113 0 
L 5113 2094 
Q 5113 2597 4934 2840 
Q 4756 3084 4391 3084 
Q 3944 3084 3684 2787 
Q 3425 2491 3425 1978 
L 3425 0 
L 2847 0 
L 2847 2094 
Q 2847 2600 2669 2842 
Q 2491 3084 2119 3084 
Q 1678 3084 1418 2786 
Q 1159 2488 1159 1978 
L 1159 0 
L 581 0 
L 581 3500 
L 1159 3500 
L 1159 2956 
Q 1356 3278 1631 3431 
Q 1906 3584 2284 3584 
Q 2666 3584 2933 3390 
Q 3200 3197 3328 2828 
z
" transform="scale(0.015625)"/>
        <path id="DejaVuSans-6f" d="M 1959 3097 
Q 1497 3097 1228 2736 
Q 959 2375 959 1747 
Q 959 1119 1226 758 
Q 1494 397 1959 397 
Q 2419 397 2687 759 
Q 2956 1122 2956 1747 
Q 2956 2369 2687 2733 
Q 2419 3097 1959 3097 
z
M 1959 3584 
Q 2709 3584 3137 3096 
Q 3566 2609 3566 1747 
Q 3566 888 3137 398 
Q 2709 -91 1959 -91 
Q 1206 -91 779 398 
Q 353 888 353 1747 
Q 353 2609 779 3096 
Q 1206 3584 1959 3584 
z
" transform="scale(0.015625)"/>
        <path id="DejaVuSans-20" transform="scale(0.015625)"/>
        <path id="DejaVuSans-76" d="M 191 3500 
L 800 3500 
L 1894 563 
L 2988 3500 
L 3597 3500 
L 2284 0 
L 1503 0 
L 191 3500 
z
" transform="scale(0.015625)"/>
        <path id="DejaVuSans-67" d="M 2906 1791 
Q 2906 2416 2648 2759 
Q 2391 3103 1925 3103 
Q 1463 3103 1205 2759 
Q 947 2416 947 1791 
Q 947 1169 1205 825 
Q 1463 481 1925 481 
Q 2391 481 2648 825 
Q 2906 1169 2906 1791 
z
M 3481 434 
Q 3481 -459 3084 -895 
Q 2688 -1331 1869 -1331 
Q 1566 -1331 1297 -1286 
Q 1028 -1241 775 -1147 
L 775 -588 
Q 1028 -725 1275 -790 
Q 1522 -856 1778 -856 
Q 2344 -856 2625 -561 
Q 2906 -266 2906 331 
L 2906 616 
Q 2728 306 2450 153 
Q 2172 0 1784 0 
Q 1141 0 747 490 
Q 353 981 353 1791 
Q 353 2603 747 3093 
Q 1141 3584 1784 3584 
Q 2172 3584 2450 3431 
Q 2728 3278 2906 2969 
L 2906 3500 
L 3481 3500 
L 3481 434 
z
" transform="scale(0.015625)"/>
       </defs>
       <use xlink:href="#DejaVuSans-6d"/>
       <use xlink:href="#DejaVuSans-61" transform="translate(97.412109 0)"/>
       <use xlink:href="#DejaVuSans-63" transform="translate(158.691406 0)"/>
       <use xlink:href="#DejaVuSans-72" transform="translate(213.671875 0)"/>
       <use xlink:href="#DejaVuSans-6f" transform="translate(252.535156 0)"/>
       <use xlink:href="#DejaVuSans-20" transform="translate(313.716797 0)"/>
       <use xlink:href="#DejaVuSans-61" transform="translate(345.503906 0)"/>
       <use xlink:href="#DejaVuSans-76" transform="translate(406.783203 0)"/>
       <use xlink:href="#DejaVuSans-67" transform="translate(465.962891 0)"/>
      </g>
     </g>
    </g>
    <g id="ytick_5">
     <g id="line2d_23">
      <path d="M 68.92575 41.760394 
L 184.546693 41.760394 
" clip-path="url(#pe67d3a69d6)" style="fill: none; stroke: #e5e5e5; stroke-linecap: square"/>
     </g>
     <g id="line2d_24">
      <path d="M 68.92575 41.760394 
" style="fill: none; stroke: #333333; stroke-width: 1.5; stroke-linecap: square"/>
      <g>
       <use xlink:href="#m40148afc1b" x="68.92575" y="41.760394" style="fill: #333333; stroke: #333333"/>
      </g>
     </g>
     <g id="text_10">
      <!-- weighted avg -->
      <g style="fill: #4d4d4d" transform="translate(4.32 45.103707) scale(0.088 -0.088)">
       <defs>
        <path id="DejaVuSans-77" d="M 269 3500 
L 844 3500 
L 1563 769 
L 2278 3500 
L 2956 3500 
L 3675 769 
L 4391 3500 
L 4966 3500 
L 4050 0 
L 3372 0 
L 2619 2869 
L 1863 0 
L 1184 0 
L 269 3500 
z
" transform="scale(0.015625)"/>
        <path id="DejaVuSans-69" d="M 603 3500 
L 1178 3500 
L 1178 0 
L 603 0 
L 603 3500 
z
M 603 4863 
L 1178 4863 
L 1178 4134 
L 603 4134 
L 603 4863 
z
" transform="scale(0.015625)"/>
        <path id="DejaVuSans-68" d="M 3513 2113 
L 3513 0 
L 2938 0 
L 2938 2094 
Q 2938 2591 2744 2837 
Q 2550 3084 2163 3084 
Q 1697 3084 1428 2787 
Q 1159 2491 1159 1978 
L 1159 0 
L 581 0 
L 581 4863 
L 1159 4863 
L 1159 2956 
Q 1366 3272 1645 3428 
Q 1925 3584 2291 3584 
Q 2894 3584 3203 3211 
Q 3513 2838 3513 2113 
z
" transform="scale(0.015625)"/>
        <path id="DejaVuSans-74" d="M 1172 4494 
L 1172 3500 
L 2356 3500 
L 2356 3053 
L 1172 3053 
L 1172 1153 
Q 1172 725 1289 603 
Q 1406 481 1766 481 
L 2356 481 
L 2356 0 
L 1766 0 
Q 1100 0 847 248 
Q 594 497 594 1153 
L 594 3053 
L 172 3053 
L 172 3500 
L 594 3500 
L 594 4494 
L 1172 4494 
z
" transform="scale(0.015625)"/>
        <path id="DejaVuSans-64" d="M 2906 2969 
L 2906 4863 
L 3481 4863 
L 3481 0 
L 2906 0 
L 2906 525 
Q 2725 213 2448 61 
Q 2172 -91 1784 -91 
Q 1150 -91 751 415 
Q 353 922 353 1747 
Q 353 2572 751 3078 
Q 1150 3584 1784 3584 
Q 2172 3584 2448 3432 
Q 2725 3281 2906 2969 
z
M 947 1747 
Q 947 1113 1208 752 
Q 1469 391 1925 391 
Q 2381 391 2643 752 
Q 2906 1113 2906 1747 
Q 2906 2381 2643 2742 
Q 2381 3103 1925 3103 
Q 1469 3103 1208 2742 
Q 947 2381 947 1747 
z
" transform="scale(0.015625)"/>
       </defs>
       <use xlink:href="#DejaVuSans-77"/>
       <use xlink:href="#DejaVuSans-65" transform="translate(81.787109 0)"/>
       <use xlink:href="#DejaVuSans-69" transform="translate(143.310547 0)"/>
       <use xlink:href="#DejaVuSans-67" transform="translate(171.09375 0)"/>
       <use xlink:href="#DejaVuSans-68" transform="translate(234.570312 0)"/>
       <use xlink:href="#DejaVuSans-74" transform="translate(297.949219 0)"/>
       <use xlink:href="#DejaVuSans-65" transform="translate(337.158203 0)"/>
       <use xlink:href="#DejaVuSans-64" transform="translate(398.681641 0)"/>
       <use xlink:href="#DejaVuSans-20" transform="translate(462.158203 0)"/>
       <use xlink:href="#DejaVuSans-61" transform="translate(493.945312 0)"/>
       <use xlink:href="#DejaVuSans-76" transform="translate(555.224609 0)"/>
       <use xlink:href="#DejaVuSans-67" transform="translate(614.404297 0)"/>
      </g>
     </g>
    </g>
   </g>
   <g id="PathCollection_1">
    <path d="M 156.167007 179.57881 
C 156.637067 179.57881 157.087938 179.392053 157.420321 179.05967 
C 157.752704 178.727287 157.939461 178.276416 157.939461 177.806356 
C 157.939461 177.336296 157.752704 176.885424 157.420321 176.553042 
C 157.087938 176.220659 156.637067 176.033902 156.167007 176.033902 
C 155.696947 176.033902 155.246076 176.220659 154.913693 176.553042 
C 154.58131 176.885424 154.394553 177.336296 154.394553 177.806356 
C 154.394553 178.276416 154.58131 178.727287 154.913693 179.05967 
C 155.246076 179.392053 155.696947 179.57881 156.167007 179.57881 
z
" clip-path="url(#pe67d3a69d6)" style="fill: #f8766d; stroke: #000000; stroke-width: 0.886227"/>
    <path d="M 154.064808 145.567319 
C 154.534868 145.567319 154.98574 145.380562 155.318122 145.04818 
C 155.650505 144.715797 155.837262 144.264926 155.837262 143.794865 
C 155.837262 143.324805 155.650505 142.873934 155.318122 142.541551 
C 154.98574 142.209168 154.534868 142.022412 154.064808 142.022412 
C 153.594748 142.022412 153.143877 142.209168 152.811494 142.541551 
C 152.479111 142.873934 152.292354 143.324805 152.292354 143.794865 
C 152.292354 144.264926 152.479111 144.715797 152.811494 145.04818 
C 153.143877 145.380562 153.594748 145.567319 154.064808 145.567319 
z
" clip-path="url(#pe67d3a69d6)" style="fill: #a3a500; stroke: #000000; stroke-width: 0.886227"/>
    <path d="M 155.115908 111.555829 
C 155.585968 111.555829 156.036839 111.369072 156.369222 111.036689 
C 156.701605 110.704306 156.888361 110.253435 156.888361 109.783375 
C 156.888361 109.313315 156.701605 108.862444 156.369222 108.530061 
C 156.036839 108.197678 155.585968 108.010921 155.115908 108.010921 
C 154.645847 108.010921 154.194976 108.197678 153.862594 108.530061 
C 153.530211 108.862444 153.343454 109.313315 153.343454 109.783375 
C 153.343454 110.253435 153.530211 110.704306 153.862594 111.036689 
C 154.194976 111.369072 154.645847 111.555829 155.115908 111.555829 
z
" clip-path="url(#pe67d3a69d6)" style="fill: #00bf7d; stroke: #000000; stroke-width: 0.886227"/>
    <path d="M 155.115908 77.544338 
C 155.585968 77.544338 156.036839 77.357582 156.369222 77.025199 
C 156.701605 76.692816 156.888361 76.241945 156.888361 75.771885 
C 156.888361 75.301824 156.701605 74.850953 156.369222 74.51857 
C 156.036839 74.186188 155.585968 73.999431 155.115908 73.999431 
C 154.645847 73.999431 154.194976 74.186188 153.862594 74.51857 
C 153.530211 74.850953 153.343454 75.301824 153.343454 75.771885 
C 153.343454 76.241945 153.530211 76.692816 153.862594 77.025199 
C 154.194976 77.357582 154.645847 77.544338 155.115908 77.544338 
z
" clip-path="url(#pe67d3a69d6)" style="fill: #00b0f6; stroke: #000000; stroke-width: 0.886227"/>
    <path d="M 155.115908 43.532848 
C 155.585968 43.532848 156.036839 43.346091 156.369222 43.013708 
C 156.701605 42.681326 156.888361 42.230454 156.888361 41.760394 
C 156.888361 41.290334 156.701605 40.839463 156.369222 40.50708 
C 156.036839 40.174697 155.585968 39.98794 155.115908 39.98794 
C 154.645847 39.98794 154.194976 40.174697 153.862594 40.50708 
C 153.530211 40.839463 153.343454 41.290334 153.343454 41.760394 
C 153.343454 42.230454 153.530211 42.681326 153.862594 43.013708 
C 154.194976 43.346091 154.645847 43.532848 155.115908 43.532848 
z
" clip-path="url(#pe67d3a69d6)" style="fill: #e76bf3; stroke: #000000; stroke-width: 0.886227"/>
   </g>
  </g>
  <g id="axes_2">
   <g id="patch_4">
    <path d="M 188.866693 198.21325 
L 304.487636 198.21325 
L 304.487636 21.3535 
L 188.866693 21.3535 
z
" style="fill: #ffffff"/>
   </g>
   <g id="matplotlib.axis_3">
    <g id="xtick_10">
     <g id="line2d_25">
      <path d="M 194.122191 198.21325 
L 194.122191 21.3535 
" clip-path="url(#pd7280911e4)" style="fill: none; stroke: #e5e5e5; stroke-linecap: square"/>
     </g>
     <g id="line2d_26">
      <path d="M 194.122191 198.21325 
" style="fill: none; stroke: #333333; stroke-width: 1.5; stroke-linecap: square"/>
      <g>
       <use xlink:href="#m8437cfde91" x="194.122191" y="198.21325" style="fill: #333333; stroke: #333333"/>
      </g>
     </g>
     <g id="text_11">
      <!-- 0.00 -->
      <g style="fill: #4d4d4d" transform="translate(184.325316 209.849875) scale(0.088 -0.088)">
       <use xlink:href="#DejaVuSans-30"/>
       <use xlink:href="#DejaVuSans-2e" transform="translate(63.623047 0)"/>
       <use xlink:href="#DejaVuSans-30" transform="translate(95.410156 0)"/>
       <use xlink:href="#DejaVuSans-30" transform="translate(159.033203 0)"/>
      </g>
     </g>
    </g>
    <g id="xtick_11">
     <g id="line2d_27">
      <path d="M 220.399678 198.21325 
L 220.399678 21.3535 
" clip-path="url(#pd7280911e4)" style="fill: none; stroke: #e5e5e5; stroke-linecap: square"/>
     </g>
     <g id="line2d_28">
      <path d="M 220.399678 198.21325 
" style="fill: none; stroke: #333333; stroke-width: 1.5; stroke-linecap: square"/>
      <g>
       <use xlink:href="#m8437cfde91" x="220.399678" y="198.21325" style="fill: #333333; stroke: #333333"/>
      </g>
     </g>
     <g id="text_12">
      <!-- 0.25 -->
      <g style="fill: #4d4d4d" transform="translate(210.602803 209.849875) scale(0.088 -0.088)">
       <use xlink:href="#DejaVuSans-30"/>
       <use xlink:href="#DejaVuSans-2e" transform="translate(63.623047 0)"/>
       <use xlink:href="#DejaVuSans-32" transform="translate(95.410156 0)"/>
       <use xlink:href="#DejaVuSans-35" transform="translate(159.033203 0)"/>
      </g>
     </g>
    </g>
    <g id="xtick_12">
     <g id="line2d_29">
      <path d="M 246.677165 198.21325 
L 246.677165 21.3535 
" clip-path="url(#pd7280911e4)" style="fill: none; stroke: #e5e5e5; stroke-linecap: square"/>
     </g>
     <g id="line2d_30">
      <path d="M 246.677165 198.21325 
" style="fill: none; stroke: #333333; stroke-width: 1.5; stroke-linecap: square"/>
      <g>
       <use xlink:href="#m8437cfde91" x="246.677165" y="198.21325" style="fill: #333333; stroke: #333333"/>
      </g>
     </g>
     <g id="text_13">
      <!-- 0.50 -->
      <g style="fill: #4d4d4d" transform="translate(236.88029 209.849875) scale(0.088 -0.088)">
       <use xlink:href="#DejaVuSans-30"/>
       <use xlink:href="#DejaVuSans-2e" transform="translate(63.623047 0)"/>
       <use xlink:href="#DejaVuSans-35" transform="translate(95.410156 0)"/>
       <use xlink:href="#DejaVuSans-30" transform="translate(159.033203 0)"/>
      </g>
     </g>
    </g>
    <g id="xtick_13">
     <g id="line2d_31">
      <path d="M 272.954652 198.21325 
L 272.954652 21.3535 
" clip-path="url(#pd7280911e4)" style="fill: none; stroke: #e5e5e5; stroke-linecap: square"/>
     </g>
     <g id="line2d_32">
      <path d="M 272.954652 198.21325 
" style="fill: none; stroke: #333333; stroke-width: 1.5; stroke-linecap: square"/>
      <g>
       <use xlink:href="#m8437cfde91" x="272.954652" y="198.21325" style="fill: #333333; stroke: #333333"/>
      </g>
     </g>
     <g id="text_14">
      <!-- 0.75 -->
      <g style="fill: #4d4d4d" transform="translate(263.157777 209.849875) scale(0.088 -0.088)">
       <use xlink:href="#DejaVuSans-30"/>
       <use xlink:href="#DejaVuSans-2e" transform="translate(63.623047 0)"/>
       <use xlink:href="#DejaVuSans-37" transform="translate(95.410156 0)"/>
       <use xlink:href="#DejaVuSans-35" transform="translate(159.033203 0)"/>
      </g>
     </g>
    </g>
    <g id="xtick_14">
     <g id="line2d_33">
      <path d="M 299.232139 198.21325 
L 299.232139 21.3535 
" clip-path="url(#pd7280911e4)" style="fill: none; stroke: #e5e5e5; stroke-linecap: square"/>
     </g>
     <g id="line2d_34">
      <path d="M 299.232139 198.21325 
" style="fill: none; stroke: #333333; stroke-width: 1.5; stroke-linecap: square"/>
      <g>
       <use xlink:href="#m8437cfde91" x="299.232139" y="198.21325" style="fill: #333333; stroke: #333333"/>
      </g>
     </g>
     <g id="text_15">
      <!-- 1.00 -->
      <g style="fill: #4d4d4d" transform="translate(289.435264 209.849875) scale(0.088 -0.088)">
       <use xlink:href="#DejaVuSans-31"/>
       <use xlink:href="#DejaVuSans-2e" transform="translate(63.623047 0)"/>
       <use xlink:href="#DejaVuSans-30" transform="translate(95.410156 0)"/>
       <use xlink:href="#DejaVuSans-30" transform="translate(159.033203 0)"/>
      </g>
     </g>
    </g>
    <g id="xtick_15">
     <g id="line2d_35">
      <path d="M 207.260934 198.21325 
L 207.260934 21.3535 
" clip-path="url(#pd7280911e4)" style="fill: none; stroke: #fafafa; stroke-width: 0.5; stroke-linecap: square"/>
     </g>
    </g>
    <g id="xtick_16">
     <g id="line2d_36">
      <path d="M 233.538421 198.21325 
L 233.538421 21.3535 
" clip-path="url(#pd7280911e4)" style="fill: none; stroke: #fafafa; stroke-width: 0.5; stroke-linecap: square"/>
     </g>
    </g>
    <g id="xtick_17">
     <g id="line2d_37">
      <path d="M 259.815908 198.21325 
L 259.815908 21.3535 
" clip-path="url(#pd7280911e4)" style="fill: none; stroke: #fafafa; stroke-width: 0.5; stroke-linecap: square"/>
     </g>
    </g>
    <g id="xtick_18">
     <g id="line2d_38">
      <path d="M 286.093395 198.21325 
L 286.093395 21.3535 
" clip-path="url(#pd7280911e4)" style="fill: none; stroke: #fafafa; stroke-width: 0.5; stroke-linecap: square"/>
     </g>
    </g>
   </g>
   <g id="matplotlib.axis_4">
    <g id="ytick_6">
     <g id="line2d_39">
      <path d="M 188.866693 177.806356 
L 304.487636 177.806356 
" clip-path="url(#pd7280911e4)" style="fill: none; stroke: #e5e5e5; stroke-linecap: square"/>
     </g>
    </g>
    <g id="ytick_7">
     <g id="line2d_40">
      <path d="M 188.866693 143.794865 
L 304.487636 143.794865 
" clip-path="url(#pd7280911e4)" style="fill: none; stroke: #e5e5e5; stroke-linecap: square"/>
     </g>
    </g>
    <g id="ytick_8">
     <g id="line2d_41">
      <path d="M 188.866693 109.783375 
L 304.487636 109.783375 
" clip-path="url(#pd7280911e4)" style="fill: none; stroke: #e5e5e5; stroke-linecap: square"/>
     </g>
    </g>
    <g id="ytick_9">
     <g id="line2d_42">
      <path d="M 188.866693 75.771885 
L 304.487636 75.771885 
" clip-path="url(#pd7280911e4)" style="fill: none; stroke: #e5e5e5; stroke-linecap: square"/>
     </g>
    </g>
    <g id="ytick_10">
     <g id="line2d_43">
      <path d="M 188.866693 41.760394 
L 304.487636 41.760394 
" clip-path="url(#pd7280911e4)" style="fill: none; stroke: #e5e5e5; stroke-linecap: square"/>
     </g>
    </g>
   </g>
   <g id="PathCollection_2">
    <path d="M 272.954652 179.57881 
C 273.424712 179.57881 273.875583 179.392053 274.207966 179.05967 
C 274.540349 178.727287 274.727106 178.276416 274.727106 177.806356 
C 274.727106 177.336296 274.540349 176.885424 274.207966 176.553042 
C 273.875583 176.220659 273.424712 176.033902 272.954652 176.033902 
C 272.484592 176.033902 272.033721 176.220659 271.701338 176.553042 
C 271.368955 176.885424 271.182198 177.336296 271.182198 177.806356 
C 271.182198 178.276416 271.368955 178.727287 271.701338 179.05967 
C 272.033721 179.392053 272.484592 179.57881 272.954652 179.57881 
z
" clip-path="url(#pd7280911e4)" style="fill: #f8766d; stroke: #000000; stroke-width: 0.886227"/>
    <path d="M 277.15905 145.567319 
C 277.62911 145.567319 278.079981 145.380562 278.412364 145.04818 
C 278.744747 144.715797 278.931504 144.264926 278.931504 143.794865 
C 278.931504 143.324805 278.744747 142.873934 278.412364 142.541551 
C 278.079981 142.209168 277.62911 142.022412 277.15905 142.022412 
C 276.68899 142.022412 276.238118 142.209168 275.905736 142.541551 
C 275.573353 142.873934 275.386596 143.324805 275.386596 143.794865 
C 275.386596 144.264926 275.573353 144.715797 275.905736 145.04818 
C 276.238118 145.380562 276.68899 145.567319 277.15905 145.567319 
z
" clip-path="url(#pd7280911e4)" style="fill: #a3a500; stroke: #000000; stroke-width: 0.886227"/>
    <path d="M 275.056851 111.555829 
C 275.526911 111.555829 275.977782 111.369072 276.310165 111.036689 
C 276.642548 110.704306 276.829305 110.253435 276.829305 109.783375 
C 276.829305 109.313315 276.642548 108.862444 276.310165 108.530061 
C 275.977782 108.197678 275.526911 108.010921 275.056851 108.010921 
C 274.586791 108.010921 274.135919 108.197678 273.803537 108.530061 
C 273.471154 108.862444 273.284397 109.313315 273.284397 109.783375 
C 273.284397 110.253435 273.471154 110.704306 273.803537 111.036689 
C 274.135919 111.369072 274.586791 111.555829 275.056851 111.555829 
z
" clip-path="url(#pd7280911e4)" style="fill: #00bf7d; stroke: #000000; stroke-width: 0.886227"/>
    <path d="M 275.056851 77.544338 
C 275.526911 77.544338 275.977782 77.357582 276.310165 77.025199 
C 276.642548 76.692816 276.829305 76.241945 276.829305 75.771885 
C 276.829305 75.301824 276.642548 74.850953 276.310165 74.51857 
C 275.977782 74.186188 275.526911 73.999431 275.056851 73.999431 
C 274.586791 73.999431 274.135919 74.186188 273.803537 74.51857 
C 273.471154 74.850953 273.284397 75.301824 273.284397 75.771885 
C 273.284397 76.241945 273.471154 76.692816 273.803537 77.025199 
C 274.135919 77.357582 274.586791 77.544338 275.056851 77.544338 
z
" clip-path="url(#pd7280911e4)" style="fill: #00b0f6; stroke: #000000; stroke-width: 0.886227"/>
    <path d="M 275.056851 43.532848 
C 275.526911 43.532848 275.977782 43.346091 276.310165 43.013708 
C 276.642548 42.681326 276.829305 42.230454 276.829305 41.760394 
C 276.829305 41.290334 276.642548 40.839463 276.310165 40.50708 
C 275.977782 40.174697 275.526911 39.98794 275.056851 39.98794 
C 274.586791 39.98794 274.135919 40.174697 273.803537 40.50708 
C 273.471154 40.839463 273.284397 41.290334 273.284397 41.760394 
C 273.284397 42.230454 273.471154 42.681326 273.803537 43.013708 
C 274.135919 43.346091 274.586791 43.532848 275.056851 43.532848 
z
" clip-path="url(#pd7280911e4)" style="fill: #e76bf3; stroke: #000000; stroke-width: 0.886227"/>
   </g>
  </g>
  <g id="axes_3">
   <g id="patch_5">
    <path d="M 308.807636 198.21325 
L 424.42858 198.21325 
L 424.42858 21.3535 
L 308.807636 21.3535 
z
" style="fill: #ffffff"/>
   </g>
   <g id="matplotlib.axis_5">
    <g id="xtick_19">
     <g id="line2d_44">
      <path d="M 314.063134 198.21325 
L 314.063134 21.3535 
" clip-path="url(#p86b8e45be1)" style="fill: none; stroke: #e5e5e5; stroke-linecap: square"/>
     </g>
     <g id="line2d_45">
      <path d="M 314.063134 198.21325 
" style="fill: none; stroke: #333333; stroke-width: 1.5; stroke-linecap: square"/>
      <g>
       <use xlink:href="#m8437cfde91" x="314.063134" y="198.21325" style="fill: #333333; stroke: #333333"/>
      </g>
     </g>
     <g id="text_16">
      <!-- 0.00 -->
      <g style="fill: #4d4d4d" transform="translate(304.266259 209.849875) scale(0.088 -0.088)">
       <use xlink:href="#DejaVuSans-30"/>
       <use xlink:href="#DejaVuSans-2e" transform="translate(63.623047 0)"/>
       <use xlink:href="#DejaVuSans-30" transform="translate(95.410156 0)"/>
       <use xlink:href="#DejaVuSans-30" transform="translate(159.033203 0)"/>
      </g>
     </g>
    </g>
    <g id="xtick_20">
     <g id="line2d_46">
      <path d="M 340.340621 198.21325 
L 340.340621 21.3535 
" clip-path="url(#p86b8e45be1)" style="fill: none; stroke: #e5e5e5; stroke-linecap: square"/>
     </g>
     <g id="line2d_47">
      <path d="M 340.340621 198.21325 
" style="fill: none; stroke: #333333; stroke-width: 1.5; stroke-linecap: square"/>
      <g>
       <use xlink:href="#m8437cfde91" x="340.340621" y="198.21325" style="fill: #333333; stroke: #333333"/>
      </g>
     </g>
     <g id="text_17">
      <!-- 0.25 -->
      <g style="fill: #4d4d4d" transform="translate(330.543746 209.849875) scale(0.088 -0.088)">
       <use xlink:href="#DejaVuSans-30"/>
       <use xlink:href="#DejaVuSans-2e" transform="translate(63.623047 0)"/>
       <use xlink:href="#DejaVuSans-32" transform="translate(95.410156 0)"/>
       <use xlink:href="#DejaVuSans-35" transform="translate(159.033203 0)"/>
      </g>
     </g>
    </g>
    <g id="xtick_21">
     <g id="line2d_48">
      <path d="M 366.618108 198.21325 
L 366.618108 21.3535 
" clip-path="url(#p86b8e45be1)" style="fill: none; stroke: #e5e5e5; stroke-linecap: square"/>
     </g>
     <g id="line2d_49">
      <path d="M 366.618108 198.21325 
" style="fill: none; stroke: #333333; stroke-width: 1.5; stroke-linecap: square"/>
      <g>
       <use xlink:href="#m8437cfde91" x="366.618108" y="198.21325" style="fill: #333333; stroke: #333333"/>
      </g>
     </g>
     <g id="text_18">
      <!-- 0.50 -->
      <g style="fill: #4d4d4d" transform="translate(356.821233 209.849875) scale(0.088 -0.088)">
       <use xlink:href="#DejaVuSans-30"/>
       <use xlink:href="#DejaVuSans-2e" transform="translate(63.623047 0)"/>
       <use xlink:href="#DejaVuSans-35" transform="translate(95.410156 0)"/>
       <use xlink:href="#DejaVuSans-30" transform="translate(159.033203 0)"/>
      </g>
     </g>
    </g>
    <g id="xtick_22">
     <g id="line2d_50">
      <path d="M 392.895595 198.21325 
L 392.895595 21.3535 
" clip-path="url(#p86b8e45be1)" style="fill: none; stroke: #e5e5e5; stroke-linecap: square"/>
     </g>
     <g id="line2d_51">
      <path d="M 392.895595 198.21325 
" style="fill: none; stroke: #333333; stroke-width: 1.5; stroke-linecap: square"/>
      <g>
       <use xlink:href="#m8437cfde91" x="392.895595" y="198.21325" style="fill: #333333; stroke: #333333"/>
      </g>
     </g>
     <g id="text_19">
      <!-- 0.75 -->
      <g style="fill: #4d4d4d" transform="translate(383.09872 209.849875) scale(0.088 -0.088)">
       <use xlink:href="#DejaVuSans-30"/>
       <use xlink:href="#DejaVuSans-2e" transform="translate(63.623047 0)"/>
       <use xlink:href="#DejaVuSans-37" transform="translate(95.410156 0)"/>
       <use xlink:href="#DejaVuSans-35" transform="translate(159.033203 0)"/>
      </g>
     </g>
    </g>
    <g id="xtick_23">
     <g id="line2d_52">
      <path d="M 419.173082 198.21325 
L 419.173082 21.3535 
" clip-path="url(#p86b8e45be1)" style="fill: none; stroke: #e5e5e5; stroke-linecap: square"/>
     </g>
     <g id="line2d_53">
      <path d="M 419.173082 198.21325 
" style="fill: none; stroke: #333333; stroke-width: 1.5; stroke-linecap: square"/>
      <g>
       <use xlink:href="#m8437cfde91" x="419.173082" y="198.21325" style="fill: #333333; stroke: #333333"/>
      </g>
     </g>
     <g id="text_20">
      <!-- 1.00 -->
      <g style="fill: #4d4d4d" transform="translate(409.376207 209.849875) scale(0.088 -0.088)">
       <use xlink:href="#DejaVuSans-31"/>
       <use xlink:href="#DejaVuSans-2e" transform="translate(63.623047 0)"/>
       <use xlink:href="#DejaVuSans-30" transform="translate(95.410156 0)"/>
       <use xlink:href="#DejaVuSans-30" transform="translate(159.033203 0)"/>
      </g>
     </g>
    </g>
    <g id="xtick_24">
     <g id="line2d_54">
      <path d="M 327.201877 198.21325 
L 327.201877 21.3535 
" clip-path="url(#p86b8e45be1)" style="fill: none; stroke: #fafafa; stroke-width: 0.5; stroke-linecap: square"/>
     </g>
    </g>
    <g id="xtick_25">
     <g id="line2d_55">
      <path d="M 353.479364 198.21325 
L 353.479364 21.3535 
" clip-path="url(#p86b8e45be1)" style="fill: none; stroke: #fafafa; stroke-width: 0.5; stroke-linecap: square"/>
     </g>
    </g>
    <g id="xtick_26">
     <g id="line2d_56">
      <path d="M 379.756851 198.21325 
L 379.756851 21.3535 
" clip-path="url(#p86b8e45be1)" style="fill: none; stroke: #fafafa; stroke-width: 0.5; stroke-linecap: square"/>
     </g>
    </g>
    <g id="xtick_27">
     <g id="line2d_57">
      <path d="M 406.034339 198.21325 
L 406.034339 21.3535 
" clip-path="url(#p86b8e45be1)" style="fill: none; stroke: #fafafa; stroke-width: 0.5; stroke-linecap: square"/>
     </g>
    </g>
   </g>
   <g id="matplotlib.axis_6">
    <g id="ytick_11">
     <g id="line2d_58">
      <path d="M 308.807636 177.806356 
L 424.42858 177.806356 
" clip-path="url(#p86b8e45be1)" style="fill: none; stroke: #e5e5e5; stroke-linecap: square"/>
     </g>
    </g>
    <g id="ytick_12">
     <g id="line2d_59">
      <path d="M 308.807636 143.794865 
L 424.42858 143.794865 
" clip-path="url(#p86b8e45be1)" style="fill: none; stroke: #e5e5e5; stroke-linecap: square"/>
     </g>
    </g>
    <g id="ytick_13">
     <g id="line2d_60">
      <path d="M 308.807636 109.783375 
L 424.42858 109.783375 
" clip-path="url(#p86b8e45be1)" style="fill: none; stroke: #e5e5e5; stroke-linecap: square"/>
     </g>
    </g>
    <g id="ytick_14">
     <g id="line2d_61">
      <path d="M 308.807636 75.771885 
L 424.42858 75.771885 
" clip-path="url(#p86b8e45be1)" style="fill: none; stroke: #e5e5e5; stroke-linecap: square"/>
     </g>
    </g>
    <g id="ytick_15">
     <g id="line2d_62">
      <path d="M 308.807636 41.760394 
L 424.42858 41.760394 
" clip-path="url(#p86b8e45be1)" style="fill: none; stroke: #e5e5e5; stroke-linecap: square"/>
     </g>
    </g>
   </g>
   <g id="PathCollection_3">
    <path d="M 399.202192 179.57881 
C 399.672252 179.57881 400.123123 179.392053 400.455506 179.05967 
C 400.787889 178.727287 400.974646 178.276416 400.974646 177.806356 
C 400.974646 177.336296 400.787889 176.885424 400.455506 176.553042 
C 400.123123 176.220659 399.672252 176.033902 399.202192 176.033902 
C 398.732132 176.033902 398.281261 176.220659 397.948878 176.553042 
C 397.616495 176.885424 397.429738 177.336296 397.429738 177.806356 
C 397.429738 178.276416 397.616495 178.727287 397.948878 179.05967 
C 398.281261 179.392053 398.732132 179.57881 399.202192 179.57881 
z
" clip-path="url(#p86b8e45be1)" style="fill: #f8766d; stroke: #000000; stroke-width: 0.886227"/>
    <path d="M 390.793396 145.567319 
C 391.263456 145.567319 391.714327 145.380562 392.04671 145.04818 
C 392.379093 144.715797 392.56585 144.264926 392.56585 143.794865 
C 392.56585 143.324805 392.379093 142.873934 392.04671 142.541551 
C 391.714327 142.209168 391.263456 142.022412 390.793396 142.022412 
C 390.323336 142.022412 389.872465 142.209168 389.540082 142.541551 
C 389.207699 142.873934 389.020942 143.324805 389.020942 143.794865 
C 389.020942 144.264926 389.207699 144.715797 389.540082 145.04818 
C 389.872465 145.380562 390.323336 145.567319 390.793396 145.567319 
z
" clip-path="url(#p86b8e45be1)" style="fill: #a3a500; stroke: #000000; stroke-width: 0.886227"/>
    <path d="M 394.997794 111.555829 
C 395.467854 111.555829 395.918725 111.369072 396.251108 111.036689 
C 396.583491 110.704306 396.770248 110.253435 396.770248 109.783375 
C 396.770248 109.313315 396.583491 108.862444 396.251108 108.530061 
C 395.918725 108.197678 395.467854 108.010921 394.997794 108.010921 
C 394.527734 108.010921 394.076863 108.197678 393.74448 108.530061 
C 393.412097 108.862444 393.22534 109.313315 393.22534 109.783375 
C 393.22534 110.253435 393.412097 110.704306 393.74448 111.036689 
C 394.076863 111.369072 394.527734 111.555829 394.997794 111.555829 
z
" clip-path="url(#p86b8e45be1)" style="fill: #00bf7d; stroke: #000000; stroke-width: 0.886227"/>
    <path d="M 394.997794 77.544338 
C 395.467854 77.544338 395.918725 77.357582 396.251108 77.025199 
C 396.583491 76.692816 396.770248 76.241945 396.770248 75.771885 
C 396.770248 75.301824 396.583491 74.850953 396.251108 74.51857 
C 395.918725 74.186188 395.467854 73.999431 394.997794 73.999431 
C 394.527734 73.999431 394.076863 74.186188 393.74448 74.51857 
C 393.412097 74.850953 393.22534 75.301824 393.22534 75.771885 
C 393.22534 76.241945 393.412097 76.692816 393.74448 77.025199 
C 394.076863 77.357582 394.527734 77.544338 394.997794 77.544338 
z
" clip-path="url(#p86b8e45be1)" style="fill: #00b0f6; stroke: #000000; stroke-width: 0.886227"/>
    <path d="M 394.997794 43.532848 
C 395.467854 43.532848 395.918725 43.346091 396.251108 43.013708 
C 396.583491 42.681326 396.770248 42.230454 396.770248 41.760394 
C 396.770248 41.290334 396.583491 40.839463 396.251108 40.50708 
C 395.918725 40.174697 395.467854 39.98794 394.997794 39.98794 
C 394.527734 39.98794 394.076863 40.174697 393.74448 40.50708 
C 393.412097 40.839463 393.22534 41.290334 393.22534 41.760394 
C 393.22534 42.230454 393.412097 42.681326 393.74448 43.013708 
C 394.076863 43.346091 394.527734 43.532848 394.997794 43.532848 
z
" clip-path="url(#p86b8e45be1)" style="fill: #e76bf3; stroke: #000000; stroke-width: 0.886227"/>
   </g>
  </g>
  <g id="patch_6">
   <path d="M 68.92575 198.21325 
L 184.546693 198.21325 
L 184.546693 21.3535 
L 68.92575 21.3535 
L 68.92575 198.21325 
z
" style="fill: none; stroke: #7f7f7f; stroke-linejoin: miter"/>
  </g>
  <g id="patch_7">
   <path d="M 188.866693 198.21325 
L 304.487636 198.21325 
L 304.487636 21.3535 
L 188.866693 21.3535 
L 188.866693 198.21325 
z
" style="fill: none; stroke: #7f7f7f; stroke-linejoin: miter"/>
  </g>
  <g id="patch_8">
   <path d="M 308.807636 198.21325 
L 424.42858 198.21325 
L 424.42858 21.3535 
L 308.807636 21.3535 
L 308.807636 198.21325 
z
" style="fill: none; stroke: #7f7f7f; stroke-linejoin: miter"/>
  </g>
  <g id="patch_9">
   <path d="M 68.92575 21.3535 
L 184.546693 21.3535 
L 184.546693 4.32 
L 68.92575 4.32 
z
" style="fill: #cccccc; stroke: #7f7f7f; stroke-linejoin: miter"/>
  </g>
  <g id="text_21">
   <!-- f1-score -->
   <g style="fill: #1a1a1a" transform="translate(108.979472 16.180062) scale(0.088 -0.088)">
    <defs>
     <path id="DejaVuSans-66" d="M 2375 4863 
L 2375 4384 
L 1825 4384 
Q 1516 4384 1395 4259 
Q 1275 4134 1275 3809 
L 1275 3500 
L 2222 3500 
L 2222 3053 
L 1275 3053 
L 1275 0 
L 697 0 
L 697 3053 
L 147 3053 
L 147 3500 
L 697 3500 
L 697 3744 
Q 697 4328 969 4595 
Q 1241 4863 1831 4863 
L 2375 4863 
z
" transform="scale(0.015625)"/>
     <path id="DejaVuSans-2d" d="M 313 2009 
L 1997 2009 
L 1997 1497 
L 313 1497 
L 313 2009 
z
" transform="scale(0.015625)"/>
    </defs>
    <use xlink:href="#DejaVuSans-66"/>
    <use xlink:href="#DejaVuSans-31" transform="translate(35.205078 0)"/>
    <use xlink:href="#DejaVuSans-2d" transform="translate(98.828125 0)"/>
    <use xlink:href="#DejaVuSans-73" transform="translate(134.912109 0)"/>
    <use xlink:href="#DejaVuSans-63" transform="translate(187.011719 0)"/>
    <use xlink:href="#DejaVuSans-6f" transform="translate(241.992188 0)"/>
    <use xlink:href="#DejaVuSans-72" transform="translate(303.173828 0)"/>
    <use xlink:href="#DejaVuSans-65" transform="translate(342.037109 0)"/>
   </g>
  </g>
  <g id="patch_10">
   <path d="M 188.866693 21.3535 
L 304.487636 21.3535 
L 304.487636 4.32 
L 188.866693 4.32 
z
" style="fill: #cccccc; stroke: #7f7f7f; stroke-linejoin: miter"/>
  </g>
  <g id="text_22">
   <!-- precision -->
   <g style="fill: #1a1a1a" transform="translate(226.829727 16.180062) scale(0.088 -0.088)">
    <defs>
     <path id="DejaVuSans-70" d="M 1159 525 
L 1159 -1331 
L 581 -1331 
L 581 3500 
L 1159 3500 
L 1159 2969 
Q 1341 3281 1617 3432 
Q 1894 3584 2278 3584 
Q 2916 3584 3314 3078 
Q 3713 2572 3713 1747 
Q 3713 922 3314 415 
Q 2916 -91 2278 -91 
Q 1894 -91 1617 61 
Q 1341 213 1159 525 
z
M 3116 1747 
Q 3116 2381 2855 2742 
Q 2594 3103 2138 3103 
Q 1681 3103 1420 2742 
Q 1159 2381 1159 1747 
Q 1159 1113 1420 752 
Q 1681 391 2138 391 
Q 2594 391 2855 752 
Q 3116 1113 3116 1747 
z
" transform="scale(0.015625)"/>
     <path id="DejaVuSans-6e" d="M 3513 2113 
L 3513 0 
L 2938 0 
L 2938 2094 
Q 2938 2591 2744 2837 
Q 2550 3084 2163 3084 
Q 1697 3084 1428 2787 
Q 1159 2491 1159 1978 
L 1159 0 
L 581 0 
L 581 3500 
L 1159 3500 
L 1159 2956 
Q 1366 3272 1645 3428 
Q 1925 3584 2291 3584 
Q 2894 3584 3203 3211 
Q 3513 2838 3513 2113 
z
" transform="scale(0.015625)"/>
    </defs>
    <use xlink:href="#DejaVuSans-70"/>
    <use xlink:href="#DejaVuSans-72" transform="translate(63.476562 0)"/>
    <use xlink:href="#DejaVuSans-65" transform="translate(102.339844 0)"/>
    <use xlink:href="#DejaVuSans-63" transform="translate(163.863281 0)"/>
    <use xlink:href="#DejaVuSans-69" transform="translate(218.84375 0)"/>
    <use xlink:href="#DejaVuSans-73" transform="translate(246.626953 0)"/>
    <use xlink:href="#DejaVuSans-69" transform="translate(298.726562 0)"/>
    <use xlink:href="#DejaVuSans-6f" transform="translate(326.509766 0)"/>
    <use xlink:href="#DejaVuSans-6e" transform="translate(387.691406 0)"/>
   </g>
  </g>
  <g id="patch_11">
   <path d="M 308.807636 21.3535 
L 424.42858 21.3535 
L 424.42858 4.32 
L 308.807636 4.32 
z
" style="fill: #cccccc; stroke: #7f7f7f; stroke-linejoin: miter"/>
  </g>
  <g id="text_23">
   <!-- recall -->
   <g style="fill: #1a1a1a" transform="translate(354.640483 16.180062) scale(0.088 -0.088)">
    <use xlink:href="#DejaVuSans-72"/>
    <use xlink:href="#DejaVuSans-65" transform="translate(38.863281 0)"/>
    <use xlink:href="#DejaVuSans-63" transform="translate(100.386719 0)"/>
    <use xlink:href="#DejaVuSans-61" transform="translate(155.367188 0)"/>
    <use xlink:href="#DejaVuSans-6c" transform="translate(216.646484 0)"/>
    <use xlink:href="#DejaVuSans-6c" transform="translate(244.429688 0)"/>
   </g>
  </g>
 </g>
 <defs>
  <clipPath id="pe67d3a69d6">
   <rect x="68.92575" y="21.3535" width="115.620943" height="176.85975"/>
  </clipPath>
  <clipPath id="pd7280911e4">
   <rect x="188.866693" y="21.3535" width="115.620943" height="176.85975"/>
  </clipPath>
  <clipPath id="p86b8e45be1">
   <rect x="308.807636" y="21.3535" width="115.620943" height="176.85975"/>
  </clipPath>
 </defs>
</svg>
