<?xml version="1.0" encoding="utf-8" standalone="no"?>
<!DOCTYPE svg PUBLIC "-//W3C//DTD SVG 1.1//EN"
  "http://www.w3.org/Graphics/SVG/1.1/DTD/svg11.dtd">
<svg xmlns:xlink="http://www.w3.org/1999/xlink" width="432pt" height="216pt" viewBox="0 0 432 216" xmlns="http://www.w3.org/2000/svg" version="1.1">
 <metadata>
  <rdf:RDF xmlns:dc="http://purl.org/dc/elements/1.1/" xmlns:cc="http://creativecommons.org/ns#" xmlns:rdf="http://www.w3.org/1999/02/22-rdf-syntax-ns#">
   <cc:Work>
    <dc:type rdf:resource="http://purl.org/dc/dcmitype/StillImage"/>
    <dc:date>2025-10-02T04:02:11.673981</dc:date>
    <dc:format>image/svg+xml</dc:format>
    <dc:creator>
     <cc:Agent>
      <dc:title>Matplotlib v3.10.6, https://matplotlib.org/</dc:title>
     </cc:Agent>
    </dc:creator>
   </cc:Work>
  </rdf:RDF>
 </metadata>
 <defs>
  <style type="text/css">*{stroke-linejoin: round; stroke-linecap: butt}</style>
 </defs>
 <g id="figure_1">
  <g id="patch_1">
   <path d="M 0 216 
L 432 216 
L 432 0 
L 0 0 
z
" style="fill: #ffffff"/>
  </g>
  <g id="patch_2">
   <path d="M 0 216 
L 432 216 
L 432 0 
L 0 0 
L 0 216 
z
" style="fill: none; stroke: #ffffff; stroke-linejoin: miter"/>
  </g>
  <g id="axes_1">
   <g id="patch_3">
    <path d="M 68.92575 198.21325 
L 184.546693 198.21325 
L 184.546693 21.3535 
L 68.92575 21.3535 
z
" style="fill: #ffffff"/>
   </g>
   <g id="matplotlib.axis_1">
    <g id="xtick_1">
     <g id="line2d_1">
      <path d="M 74.181247 198.21325 
L 74.181247 21.3535 
" clip-path="url(#pc7358a5793)" style="fill: none; stroke: #e5e5e5; stroke-linecap: square"/>
     </g>
     <g id="line2d_2">
      <path d="M 74.181247 198.21325 
" style="fill: none; stroke: #333333; stroke-width: 1.5; stroke-linecap: square"/>
      <defs>
       <path id="m496db02dd0" d="M 0 0 
L 0 2.75 
" style="stroke: #333333"/>
      </defs>
      <g>
       <use xlink:href="#m496db02dd0" x="74.181247" y="198.21325" style="fill: #333333; stroke: #333333"/>
      </g>
     </g>
     <g id="text_1">
      <!-- 0.00 -->
      <g style="fill: #4d4d4d" transform="translate(64.384372 209.849875) scale(0.088 -0.088)">
       <defs>
        <path id="DejaVuSans-30" d="M 2034 4250 
Q 1547 4250 1301 3770 
Q 1056 3291 1056 2328 
Q 1056 1369 1301 889 
Q 1547 409 2034 409 
Q 2525 409 2770 889 
Q 3016 1369 3016 2328 
Q 3016 3291 2770 3770 
Q 2525 4250 2034 4250 
z
M 2034 4750 
Q 2819 4750 3233 4129 
Q 3647 3509 3647 2328 
Q 3647 1150 3233 529 
Q 2819 -91 2034 -91 
Q 1250 -91 836 529 
Q 422 1150 422 2328 
Q 422 3509 836 4129 
Q 1250 4750 2034 4750 
z
" transform="scale(0.015625)"/>
        <path id="DejaVuSans-2e" d="M 684 794 
L 1344 794 
L 1344 0 
L 684 0 
L 684 794 
z
" transform="scale(0.015625)"/>
       </defs>
       <use xlink:href="#DejaVuSans-30"/>
       <use xlink:href="#DejaVuSans-2e" transform="translate(63.623047 0)"/>
       <use xlink:href="#DejaVuSans-30" transform="translate(95.410156 0)"/>
       <use xlink:href="#DejaVuSans-30" transform="translate(159.033203 0)"/>
      </g>
     </g>
    </g>
    <g id="xtick_2">
     <g id="line2d_3">
      <path d="M 100.458735 198.21325 
L 100.458735 21.3535 
" clip-path="url(#pc7358a5793)" style="fill: none; stroke: #e5e5e5; stroke-linecap: square"/>
     </g>
     <g id="line2d_4">
      <path d="M 100.458735 198.21325 
" style="fill: none; stroke: #333333; stroke-width: 1.5; stroke-linecap: square"/>
      <g>
       <use xlink:href="#m496db02dd0" x="100.458735" y="198.21325" style="fill: #333333; stroke: #333333"/>
      </g>
     </g>
     <g id="text_2">
      <!-- 0.25 -->
      <g style="fill: #4d4d4d" transform="translate(90.66186 209.849875) scale(0.088 -0.088)">
       <defs>
        <path id="DejaVuSans-32" d="M 1228 531 
L 3431 531 
L 3431 0 
L 469 0 
L 469 531 
Q 828 903 1448 1529 
Q 2069 2156 2228 2338 
Q 2531 2678 2651 2914 
Q 2772 3150 2772 3378 
Q 2772 3750 2511 3984 
Q 2250 4219 1831 4219 
Q 1534 4219 1204 4116 
Q 875 4013 500 3803 
L 500 4441 
Q 881 4594 1212 4672 
Q 1544 4750 1819 4750 
Q 2544 4750 2975 4387 
Q 3406 4025 3406 3419 
Q 3406 3131 3298 2873 
Q 3191 2616 2906 2266 
Q 2828 2175 2409 1742 
Q 1991 1309 1228 531 
z
" transform="scale(0.015625)"/>
        <path id="DejaVuSans-35" d="M 691 4666 
L 3169 4666 
L 3169 4134 
L 1269 4134 
L 1269 2991 
Q 1406 3038 1543 3061 
Q 1681 3084 1819 3084 
Q 2600 3084 3056 2656 
Q 3513 2228 3513 1497 
Q 3513 744 3044 326 
Q 2575 -91 1722 -91 
Q 1428 -91 1123 -41 
Q 819 9 494 109 
L 494 744 
Q 775 591 1075 516 
Q 1375 441 1709 441 
Q 2250 441 2565 725 
Q 2881 1009 2881 1497 
Q 2881 1984 2565 2268 
Q 2250 2553 1709 2553 
Q 1456 2553 1204 2497 
Q 953 2441 691 2322 
L 691 4666 
z
" transform="scale(0.015625)"/>
       </defs>
       <use xlink:href="#DejaVuSans-30"/>
       <use xlink:href="#DejaVuSans-2e" transform="translate(63.623047 0)"/>
       <use xlink:href="#DejaVuSans-32" transform="translate(95.410156 0)"/>
       <use xlink:href="#DejaVuSans-35" transform="translate(159.033203 0)"/>
      </g>
     </g>
    </g>
    <g id="xtick_3">
     <g id="line2d_5">
      <path d="M 126.736222 198.21325 
L 126.736222 21.3535 
" clip-path="url(#pc7358a5793)" style="fill: none; stroke: #e5e5e5; stroke-linecap: square"/>
     </g>
     <g id="line2d_6">
      <path d="M 126.736222 198.21325 
" style="fill: none; stroke: #333333; stroke-width: 1.5; stroke-linecap: square"/>
      <g>
       <use xlink:href="#m496db02dd0" x="126.736222" y="198.21325" style="fill: #333333; stroke: #333333"/>
      </g>
     </g>
     <g id="text_3">
      <!-- 0.50 -->
      <g style="fill: #4d4d4d" transform="translate(116.939347 209.849875) scale(0.088 -0.088)">
       <use xlink:href="#DejaVuSans-30"/>
       <use xlink:href="#DejaVuSans-2e" transform="translate(63.623047 0)"/>
       <use xlink:href="#DejaVuSans-35" transform="translate(95.410156 0)"/>
       <use xlink:href="#DejaVuSans-30" transform="translate(159.033203 0)"/>
      </g>
     </g>
    </g>
    <g id="xtick_4">
     <g id="line2d_7">
      <path d="M 153.013709 198.21325 
L 153.013709 21.3535 
" clip-path="url(#pc7358a5793)" style="fill: none; stroke: #e5e5e5; stroke-linecap: square"/>
     </g>
     <g id="line2d_8">
      <path d="M 153.013709 198.21325 
" style="fill: none; stroke: #333333; stroke-width: 1.5; stroke-linecap: square"/>
      <g>
       <use xlink:href="#m496db02dd0" x="153.013709" y="198.21325" style="fill: #333333; stroke: #333333"/>
      </g>
     </g>
     <g id="text_4">
      <!-- 0.75 -->
      <g style="fill: #4d4d4d" transform="translate(143.216834 209.849875) scale(0.088 -0.088)">
       <defs>
        <path id="DejaVuSans-37" d="M 525 4666 
L 3525 4666 
L 3525 4397 
L 1831 0 
L 1172 0 
L 2766 4134 
L 525 4134 
L 525 4666 
z
" transform="scale(0.015625)"/>
       </defs>
       <use xlink:href="#DejaVuSans-30"/>
       <use xlink:href="#DejaVuSans-2e" transform="translate(63.623047 0)"/>
       <use xlink:href="#DejaVuSans-37" transform="translate(95.410156 0)"/>
       <use xlink:href="#DejaVuSans-35" transform="translate(159.033203 0)"/>
      </g>
     </g>
    </g>
    <g id="xtick_5">
     <g id="line2d_9">
      <path d="M 179.291196 198.21325 
L 179.291196 21.3535 
" clip-path="url(#pc7358a5793)" style="fill: none; stroke: #e5e5e5; stroke-linecap: square"/>
     </g>
     <g id="line2d_10">
      <path d="M 179.291196 198.21325 
" style="fill: none; stroke: #333333; stroke-width: 1.5; stroke-linecap: square"/>
      <g>
       <use xlink:href="#m496db02dd0" x="179.291196" y="198.21325" style="fill: #333333; stroke: #333333"/>
      </g>
     </g>
     <g id="text_5">
      <!-- 1.00 -->
      <g style="fill: #4d4d4d" transform="translate(169.494321 209.849875) scale(0.088 -0.088)">
       <defs>
        <path id="DejaVuSans-31" d="M 794 531 
L 1825 531 
L 1825 4091 
L 703 3866 
L 703 4441 
L 1819 4666 
L 2450 4666 
L 2450 531 
L 3481 531 
L 3481 0 
L 794 0 
L 794 531 
z
" transform="scale(0.015625)"/>
       </defs>
       <use xlink:href="#DejaVuSans-31"/>
       <use xlink:href="#DejaVuSans-2e" transform="translate(63.623047 0)"/>
       <use xlink:href="#DejaVuSans-30" transform="translate(95.410156 0)"/>
       <use xlink:href="#DejaVuSans-30" transform="translate(159.033203 0)"/>
      </g>
     </g>
    </g>
    <g id="xtick_6">
     <g id="line2d_11">
      <path d="M 87.319991 198.21325 
L 87.319991 21.3535 
" clip-path="url(#pc7358a5793)" style="fill: none; stroke: #fafafa; stroke-width: 0.5; stroke-linecap: square"/>
     </g>
    </g>
    <g id="xtick_7">
     <g id="line2d_12">
      <path d="M 113.597478 198.21325 
L 113.597478 21.3535 
" clip-path="url(#pc7358a5793)" style="fill: none; stroke: #fafafa; stroke-width: 0.5; stroke-linecap: square"/>
     </g>
    </g>
    <g id="xtick_8">
     <g id="line2d_13">
      <path d="M 139.874965 198.21325 
L 139.874965 21.3535 
" clip-path="url(#pc7358a5793)" style="fill: none; stroke: #fafafa; stroke-width: 0.5; stroke-linecap: square"/>
     </g>
    </g>
    <g id="xtick_9">
     <g id="line2d_14">
      <path d="M 166.152452 198.21325 
L 166.152452 21.3535 
" clip-path="url(#pc7358a5793)" style="fill: none; stroke: #fafafa; stroke-width: 0.5; stroke-linecap: square"/>
     </g>
    </g>
   </g>
   <g id="matplotlib.axis_2">
    <g id="ytick_1">
     <g id="line2d_15">
      <path d="M 68.92575 177.806356 
L 184.546693 177.806356 
" clip-path="url(#pc7358a5793)" style="fill: none; stroke: #e5e5e5; stroke-linecap: square"/>
     </g>
     <g id="line2d_16">
      <path d="M 68.92575 177.806356 
" style="fill: none; stroke: #333333; stroke-width: 1.5; stroke-linecap: square"/>
      <defs>
       <path id="m170d35aeca" d="M 0 0 
L -2.75 0 
" style="stroke: #333333"/>
      </defs>
      <g>
       <use xlink:href="#m170d35aeca" x="68.92575" y="177.806356" style="fill: #333333; stroke: #333333"/>
      </g>
     </g>
     <g id="text_6">
      <!-- False -->
      <g style="fill: #4d4d4d" transform="translate(41.880875 181.149668) scale(0.088 -0.088)">
       <defs>
        <path id="DejaVuSans-46" d="M 628 4666 
L 3309 4666 
L 3309 4134 
L 1259 4134 
L 1259 2759 
L 3109 2759 
L 3109 2228 
L 1259 2228 
L 1259 0 
L 628 0 
L 628 4666 
z
" transform="scale(0.015625)"/>
        <path id="DejaVuSans-61" d="M 2194 1759 
Q 1497 1759 1228 1600 
Q 959 1441 959 1056 
Q 959 750 1161 570 
Q 1363 391 1709 391 
Q 2188 391 2477 730 
Q 2766 1069 2766 1631 
L 2766 1759 
L 2194 1759 
z
M 3341 1997 
L 3341 0 
L 2766 0 
L 2766 531 
Q 2569 213 2275 61 
Q 1981 -91 1556 -91 
Q 1019 -91 701 211 
Q 384 513 384 1019 
Q 384 1609 779 1909 
Q 1175 2209 1959 2209 
L 2766 2209 
L 2766 2266 
Q 2766 2663 2505 2880 
Q 2244 3097 1772 3097 
Q 1472 3097 1187 3025 
Q 903 2953 641 2809 
L 641 3341 
Q 956 3463 1253 3523 
Q 1550 3584 1831 3584 
Q 2591 3584 2966 3190 
Q 3341 2797 3341 1997 
z
" transform="scale(0.015625)"/>
        <path id="DejaVuSans-6c" d="M 603 4863 
L 1178 4863 
L 1178 0 
L 603 0 
L 603 4863 
z
" transform="scale(0.015625)"/>
        <path id="DejaVuSans-73" d="M 2834 3397 
L 2834 2853 
Q 2591 2978 2328 3040 
Q 2066 3103 1784 3103 
Q 1356 3103 1142 2972 
Q 928 2841 928 2578 
Q 928 2378 1081 2264 
Q 1234 2150 1697 2047 
L 1894 2003 
Q 2506 1872 2764 1633 
Q 3022 1394 3022 966 
Q 3022 478 2636 193 
Q 2250 -91 1575 -91 
Q 1294 -91 989 -36 
Q 684 19 347 128 
L 347 722 
Q 666 556 975 473 
Q 1284 391 1588 391 
Q 1994 391 2212 530 
Q 2431 669 2431 922 
Q 2431 1156 2273 1281 
Q 2116 1406 1581 1522 
L 1381 1569 
Q 847 1681 609 1914 
Q 372 2147 372 2553 
Q 372 3047 722 3315 
Q 1072 3584 1716 3584 
Q 2034 3584 2315 3537 
Q 2597 3491 2834 3397 
z
" transform="scale(0.015625)"/>
        <path id="DejaVuSans-65" d="M 3597 1894 
L 3597 1613 
L 953 1613 
Q 991 1019 1311 708 
Q 1631 397 2203 397 
Q 2534 397 2845 478 
Q 3156 559 3463 722 
L 3463 178 
Q 3153 47 2828 -22 
Q 2503 -91 2169 -91 
Q 1331 -91 842 396 
Q 353 884 353 1716 
Q 353 2575 817 3079 
Q 1281 3584 2069 3584 
Q 2775 3584 3186 3129 
Q 3597 2675 3597 1894 
z
M 3022 2063 
Q 3016 2534 2758 2815 
Q 2500 3097 2075 3097 
Q 1594 3097 1305 2825 
Q 1016 2553 972 2059 
L 3022 2063 
z
" transform="scale(0.015625)"/>
       </defs>
       <use xlink:href="#DejaVuSans-46"/>
       <use xlink:href="#DejaVuSans-61" transform="translate(48.394531 0)"/>
       <use xlink:href="#DejaVuSans-6c" transform="translate(109.673828 0)"/>
       <use xlink:href="#DejaVuSans-73" transform="translate(137.457031 0)"/>
       <use xlink:href="#DejaVuSans-65" transform="translate(189.556641 0)"/>
      </g>
     </g>
    </g>
    <g id="ytick_2">
     <g id="line2d_17">
      <path d="M 68.92575 143.794865 
L 184.546693 143.794865 
" clip-path="url(#pc7358a5793)" style="fill: none; stroke: #e5e5e5; stroke-linecap: square"/>
     </g>
     <g id="line2d_18">
      <path d="M 68.92575 143.794865 
" style="fill: none; stroke: #333333; stroke-width: 1.5; stroke-linecap: square"/>
      <g>
       <use xlink:href="#m170d35aeca" x="68.92575" y="143.794865" style="fill: #333333; stroke: #333333"/>
      </g>
     </g>
     <g id="text_7">
      <!-- True -->
      <g style="fill: #4d4d4d" transform="translate(45.2895 147.138178) scale(0.088 -0.088)">
       <defs>
        <path id="DejaVuSans-54" d="M -19 4666 
L 3928 4666 
L 3928 4134 
L 2272 4134 
L 2272 0 
L 1638 0 
L 1638 4134 
L -19 4134 
L -19 4666 
z
" transform="scale(0.015625)"/>
        <path id="DejaVuSans-72" d="M 2631 2963 
Q 2534 3019 2420 3045 
Q 2306 3072 2169 3072 
Q 1681 3072 1420 2755 
Q 1159 2438 1159 1844 
L 1159 0 
L 581 0 
L 581 3500 
L 1159 3500 
L 1159 2956 
Q 1341 3275 1631 3429 
Q 1922 3584 2338 3584 
Q 2397 3584 2469 3576 
Q 2541 3569 2628 3553 
L 2631 2963 
z
" transform="scale(0.015625)"/>
        <path id="DejaVuSans-75" d="M 544 1381 
L 544 3500 
L 1119 3500 
L 1119 1403 
Q 1119 906 1312 657 
Q 1506 409 1894 409 
Q 2359 409 2629 706 
Q 2900 1003 2900 1516 
L 2900 3500 
L 3475 3500 
L 3475 0 
L 2900 0 
L 2900 538 
Q 2691 219 2414 64 
Q 2138 -91 1772 -91 
Q 1169 -91 856 284 
Q 544 659 544 1381 
z
M 1991 3584 
L 1991 3584 
z
" transform="scale(0.015625)"/>
       </defs>
       <use xlink:href="#DejaVuSans-54"/>
       <use xlink:href="#DejaVuSans-72" transform="translate(46.333984 0)"/>
       <use xlink:href="#DejaVuSans-75" transform="translate(87.447266 0)"/>
       <use xlink:href="#DejaVuSans-65" transform="translate(150.826172 0)"/>
      </g>
     </g>
    </g>
    <g id="ytick_3">
     <g id="line2d_19">
      <path d="M 68.92575 109.783375 
L 184.546693 109.783375 
" clip-path="url(#pc7358a5793)" style="fill: none; stroke: #e5e5e5; stroke-linecap: square"/>
     </g>
     <g id="line2d_20">
      <path d="M 68.92575 109.783375 
" style="fill: none; stroke: #333333; stroke-width: 1.5; stroke-linecap: square"/>
      <g>
       <use xlink:href="#m170d35aeca" x="68.92575" y="109.783375" style="fill: #333333; stroke: #333333"/>
      </g>
     </g>
     <g id="text_8">
      <!-- accuracy -->
      <g style="fill: #4d4d4d" transform="translate(24.27125 113.126687) scale(0.088 -0.088)">
       <defs>
        <path id="DejaVuSans-63" d="M 3122 3366 
L 3122 2828 
Q 2878 2963 2633 3030 
Q 2388 3097 2138 3097 
Q 1578 3097 1268 2742 
Q 959 2388 959 1747 
Q 959 1106 1268 751 
Q 1578 397 2138 397 
Q 2388 397 2633 464 
Q 2878 531 3122 666 
L 3122 134 
Q 2881 22 2623 -34 
Q 2366 -91 2075 -91 
Q 1284 -91 818 406 
Q 353 903 353 1747 
Q 353 2603 823 3093 
Q 1294 3584 2113 3584 
Q 2378 3584 2631 3529 
Q 2884 3475 3122 3366 
z
" transform="scale(0.015625)"/>
        <path id="DejaVuSans-79" d="M 2059 -325 
Q 1816 -950 1584 -1140 
Q 1353 -1331 966 -1331 
L 506 -1331 
L 506 -850 
L 844 -850 
Q 1081 -850 1212 -737 
Q 1344 -625 1503 -206 
L 1606 56 
L 191 3500 
L 800 3500 
L 1894 763 
L 2988 3500 
L 3597 3500 
L 2059 -325 
z
" transform="scale(0.015625)"/>
       </defs>
       <use xlink:href="#DejaVuSans-61"/>
       <use xlink:href="#DejaVuSans-63" transform="translate(61.279297 0)"/>
       <use xlink:href="#DejaVuSans-63" transform="translate(116.259766 0)"/>
       <use xlink:href="#DejaVuSans-75" transform="translate(171.240234 0)"/>
       <use xlink:href="#DejaVuSans-72" transform="translate(234.619141 0)"/>
       <use xlink:href="#DejaVuSans-61" transform="translate(275.732422 0)"/>
       <use xlink:href="#DejaVuSans-63" transform="translate(337.011719 0)"/>
       <use xlink:href="#DejaVuSans-79" transform="translate(391.992188 0)"/>
      </g>
     </g>
    </g>
    <g id="ytick_4">
     <g id="line2d_21">
      <path d="M 68.92575 75.771885 
L 184.546693 75.771885 
" clip-path="url(#pc7358a5793)" style="fill: none; stroke: #e5e5e5; stroke-linecap: square"/>
     </g>
     <g id="line2d_22">
      <path d="M 68.92575 75.771885 
" style="fill: none; stroke: #333333; stroke-width: 1.5; stroke-linecap: square"/>
      <g>
       <use xlink:href="#m170d35aeca" x="68.92575" y="75.771885" style="fill: #333333; stroke: #333333"/>
      </g>
     </g>
     <g id="text_9">
      <!-- macro avg -->
      <g style="fill: #4d4d4d" transform="translate(17.383875 79.115197) scale(0.088 -0.088)">
       <defs>
        <path id="DejaVuSans-6d" d="M 3328 2828 
Q 3544 3216 3844 3400 
Q 4144 3584 4550 3584 
Q 5097 3584 5394 3201 
Q 5691 2819 5691 2113 
L 5691 0 
L 5113 0 
L 5113 2094 
Q 5113 2597 4934 2840 
Q 4756 3084 4391 3084 
Q 3944 3084 3684 2787 
Q 3425 2491 3425 1978 
L 3425 0 
L 2847 0 
L 2847 2094 
Q 2847 2600 2669 2842 
Q 2491 3084 2119 3084 
Q 1678 3084 1418 2786 
Q 1159 2488 1159 1978 
L 1159 0 
L 581 0 
L 581 3500 
L 1159 3500 
L 1159 2956 
Q 1356 3278 1631 3431 
Q 1906 3584 2284 3584 
Q 2666 3584 2933 3390 
Q 3200 3197 3328 2828 
z
" transform="scale(0.015625)"/>
        <path id="DejaVuSans-6f" d="M 1959 3097 
Q 1497 3097 1228 2736 
Q 959 2375 959 1747 
Q 959 1119 1226 758 
Q 1494 397 1959 397 
Q 2419 397 2687 759 
Q 2956 1122 2956 1747 
Q 2956 2369 2687 2733 
Q 2419 3097 1959 3097 
z
M 1959 3584 
Q 2709 3584 3137 3096 
Q 3566 2609 3566 1747 
Q 3566 888 3137 398 
Q 2709 -91 1959 -91 
Q 1206 -91 779 398 
Q 353 888 353 1747 
Q 353 2609 779 3096 
Q 1206 3584 1959 3584 
z
" transform="scale(0.015625)"/>
        <path id="DejaVuSans-20" transform="scale(0.015625)"/>
        <path id="DejaVuSans-76" d="M 191 3500 
L 800 3500 
L 1894 563 
L 2988 3500 
L 3597 3500 
L 2284 0 
L 1503 0 
L 191 3500 
z
" transform="scale(0.015625)"/>
        <path id="DejaVuSans-67" d="M 2906 1791 
Q 2906 2416 2648 2759 
Q 2391 3103 1925 3103 
Q 1463 3103 1205 2759 
Q 947 2416 947 1791 
Q 947 1169 1205 825 
Q 1463 481 1925 481 
Q 2391 481 2648 825 
Q 2906 1169 2906 1791 
z
M 3481 434 
Q 3481 -459 3084 -895 
Q 2688 -1331 1869 -1331 
Q 1566 -1331 1297 -1286 
Q 1028 -1241 775 -1147 
L 775 -588 
Q 1028 -725 1275 -790 
Q 1522 -856 1778 -856 
Q 2344 -856 2625 -561 
Q 2906 -266 2906 331 
L 2906 616 
Q 2728 306 2450 153 
Q 2172 0 1784 0 
Q 1141 0 747 490 
Q 353 981 353 1791 
Q 353 2603 747 3093 
Q 1141 3584 1784 3584 
Q 2172 3584 2450 3431 
Q 2728 3278 2906 2969 
L 2906 3500 
L 3481 3500 
L 3481 434 
z
" transform="scale(0.015625)"/>
       </defs>
       <use xlink:href="#DejaVuSans-6d"/>
       <use xlink:href="#DejaVuSans-61" transform="translate(97.412109 0)"/>
       <use xlink:href="#DejaVuSans-63" transform="translate(158.691406 0)"/>
       <use xlink:href="#DejaVuSans-72" transform="translate(213.671875 0)"/>
       <use xlink:href="#DejaVuSans-6f" transform="translate(252.535156 0)"/>
       <use xlink:href="#DejaVuSans-20" transform="translate(313.716797 0)"/>
       <use xlink:href="#DejaVuSans-61" transform="translate(345.503906 0)"/>
       <use xlink:href="#DejaVuSans-76" transform="translate(406.783203 0)"/>
       <use xlink:href="#DejaVuSans-67" transform="translate(465.962891 0)"/>
      </g>
     </g>
    </g>
    <g id="ytick_5">
     <g id="line2d_23">
      <path d="M 68.92575 41.760394 
L 184.546693 41.760394 
" clip-path="url(#pc7358a5793)" style="fill: none; stroke: #e5e5e5; stroke-linecap: square"/>
     </g>
     <g id="line2d_24">
      <path d="M 68.92575 41.760394 
" style="fill: none; stroke: #333333; stroke-width: 1.5; stroke-linecap: square"/>
      <g>
       <use xlink:href="#m170d35aeca" x="68.92575" y="41.760394" style="fill: #333333; stroke: #333333"/>
      </g>
     </g>
     <g id="text_10">
      <!-- weighted avg -->
      <g style="fill: #4d4d4d" transform="translate(4.32 45.103707) scale(0.088 -0.088)">
       <defs>
        <path id="DejaVuSans-77" d="M 269 3500 
L 844 3500 
L 1563 769 
L 2278 3500 
L 2956 3500 
L 3675 769 
L 4391 3500 
L 4966 3500 
L 4050 0 
L 3372 0 
L 2619 2869 
L 1863 0 
L 1184 0 
L 269 3500 
z
" transform="scale(0.015625)"/>
        <path id="DejaVuSans-69" d="M 603 3500 
L 1178 3500 
L 1178 0 
L 603 0 
L 603 3500 
z
M 603 4863 
L 1178 4863 
L 1178 4134 
L 603 4134 
L 603 4863 
z
" transform="scale(0.015625)"/>
        <path id="DejaVuSans-68" d="M 3513 2113 
L 3513 0 
L 2938 0 
L 2938 2094 
Q 2938 2591 2744 2837 
Q 2550 3084 2163 3084 
Q 1697 3084 1428 2787 
Q 1159 2491 1159 1978 
L 1159 0 
L 581 0 
L 581 4863 
L 1159 4863 
L 1159 2956 
Q 1366 3272 1645 3428 
Q 1925 3584 2291 3584 
Q 2894 3584 3203 3211 
Q 3513 2838 3513 2113 
z
" transform="scale(0.015625)"/>
        <path id="DejaVuSans-74" d="M 1172 4494 
L 1172 3500 
L 2356 3500 
L 2356 3053 
L 1172 3053 
L 1172 1153 
Q 1172 725 1289 603 
Q 1406 481 1766 481 
L 2356 481 
L 2356 0 
L 1766 0 
Q 1100 0 847 248 
Q 594 497 594 1153 
L 594 3053 
L 172 3053 
L 172 3500 
L 594 3500 
L 594 4494 
L 1172 4494 
z
" transform="scale(0.015625)"/>
        <path id="DejaVuSans-64" d="M 2906 2969 
L 2906 4863 
L 3481 4863 
L 3481 0 
L 2906 0 
L 2906 525 
Q 2725 213 2448 61 
Q 2172 -91 1784 -91 
Q 1150 -91 751 415 
Q 353 922 353 1747 
Q 353 2572 751 3078 
Q 1150 3584 1784 3584 
Q 2172 3584 2448 3432 
Q 2725 3281 2906 2969 
z
M 947 1747 
Q 947 1113 1208 752 
Q 1469 391 1925 391 
Q 2381 391 2643 752 
Q 2906 1113 2906 1747 
Q 2906 2381 2643 2742 
Q 2381 3103 1925 3103 
Q 1469 3103 1208 2742 
Q 947 2381 947 1747 
z
" transform="scale(0.015625)"/>
       </defs>
       <use xlink:href="#DejaVuSans-77"/>
       <use xlink:href="#DejaVuSans-65" transform="translate(81.787109 0)"/>
       <use xlink:href="#DejaVuSans-69" transform="translate(143.310547 0)"/>
       <use xlink:href="#DejaVuSans-67" transform="translate(171.09375 0)"/>
       <use xlink:href="#DejaVuSans-68" transform="translate(234.570312 0)"/>
       <use xlink:href="#DejaVuSans-74" transform="translate(297.949219 0)"/>
       <use xlink:href="#DejaVuSans-65" transform="translate(337.158203 0)"/>
       <use xlink:href="#DejaVuSans-64" transform="translate(398.681641 0)"/>
       <use xlink:href="#DejaVuSans-20" transform="translate(462.158203 0)"/>
       <use xlink:href="#DejaVuSans-61" transform="translate(493.945312 0)"/>
       <use xlink:href="#DejaVuSans-76" transform="translate(555.224609 0)"/>
       <use xlink:href="#DejaVuSans-67" transform="translate(614.404297 0)"/>
      </g>
     </g>
    </g>
   </g>
   <g id="PathCollection_1">
    <path d="M 163.524704 179.57881 
C 163.994764 179.57881 164.445635 179.392053 164.778018 179.05967 
C 165.1104 178.727287 165.297157 178.276416 165.297157 177.806356 
C 165.297157 177.336296 165.1104 176.885424 164.778018 176.553042 
C 164.445635 176.220659 163.994764 176.033902 163.524704 176.033902 
C 163.054643 176.033902 162.603772 176.220659 162.271389 176.553042 
C 161.939007 176.885424 161.75225 177.336296 161.75225 177.806356 
C 161.75225 178.276416 161.939007 178.727287 162.271389 179.05967 
C 162.603772 179.392053 163.054643 179.57881 163.524704 179.57881 
z
" clip-path="url(#pc7358a5793)" style="fill: #f8766d; stroke: #000000; stroke-width: 0.886227"/>
    <path d="M 161.422505 145.567319 
C 161.892565 145.567319 162.343436 145.380562 162.675819 145.04818 
C 163.008201 144.715797 163.194958 144.264926 163.194958 143.794865 
C 163.194958 143.324805 163.008201 142.873934 162.675819 142.541551 
C 162.343436 142.209168 161.892565 142.022412 161.422505 142.022412 
C 160.952444 142.022412 160.501573 142.209168 160.16919 142.541551 
C 159.836808 142.873934 159.650051 143.324805 159.650051 143.794865 
C 159.650051 144.264926 159.836808 144.715797 160.16919 145.04818 
C 160.501573 145.380562 160.952444 145.567319 161.422505 145.567319 
z
" clip-path="url(#pc7358a5793)" style="fill: #a3a500; stroke: #000000; stroke-width: 0.886227"/>
    <path d="M 162.473604 111.555829 
C 162.943664 111.555829 163.394535 111.369072 163.726918 111.036689 
C 164.059301 110.704306 164.246058 110.253435 164.246058 109.783375 
C 164.246058 109.313315 164.059301 108.862444 163.726918 108.530061 
C 163.394535 108.197678 162.943664 108.010921 162.473604 108.010921 
C 162.003544 108.010921 161.552673 108.197678 161.22029 108.530061 
C 160.887907 108.862444 160.70115 109.313315 160.70115 109.783375 
C 160.70115 110.253435 160.887907 110.704306 161.22029 111.036689 
C 161.552673 111.369072 162.003544 111.555829 162.473604 111.555829 
z
" clip-path="url(#pc7358a5793)" style="fill: #00bf7d; stroke: #000000; stroke-width: 0.886227"/>
    <path d="M 162.473604 77.544338 
C 162.943664 77.544338 163.394535 77.357582 163.726918 77.025199 
C 164.059301 76.692816 164.246058 76.241945 164.246058 75.771885 
C 164.246058 75.301824 164.059301 74.850953 163.726918 74.51857 
C 163.394535 74.186188 162.943664 73.999431 162.473604 73.999431 
C 162.003544 73.999431 161.552673 74.186188 161.22029 74.51857 
C 160.887907 74.850953 160.70115 75.301824 160.70115 75.771885 
C 160.70115 76.241945 160.887907 76.692816 161.22029 77.025199 
C 161.552673 77.357582 162.003544 77.544338 162.473604 77.544338 
z
" clip-path="url(#pc7358a5793)" style="fill: #00b0f6; stroke: #000000; stroke-width: 0.886227"/>
    <path d="M 162.473604 43.532848 
C 162.943664 43.532848 163.394535 43.346091 163.726918 43.013708 
C 164.059301 42.681326 164.246058 42.230454 164.246058 41.760394 
C 164.246058 41.290334 164.059301 40.839463 163.726918 40.50708 
C 163.394535 40.174697 162.943664 39.98794 162.473604 39.98794 
C 162.003544 39.98794 161.552673 40.174697 161.22029 40.50708 
C 160.887907 40.839463 160.70115 41.290334 160.70115 41.760394 
C 160.70115 42.230454 160.887907 42.681326 161.22029 43.013708 
C 161.552673 43.346091 162.003544 43.532848 162.473604 43.532848 
z
" clip-path="url(#pc7358a5793)" style="fill: #e76bf3; stroke: #000000; stroke-width: 0.886227"/>
   </g>
  </g>
  <g id="axes_2">
   <g id="patch_4">
    <path d="M 188.866693 198.21325 
L 304.487636 198.21325 
L 304.487636 21.3535 
L 188.866693 21.3535 
z
" style="fill: #ffffff"/>
   </g>
   <g id="matplotlib.axis_3">
    <g id="xtick_10">
     <g id="line2d_25">
      <path d="M 194.122191 198.21325 
L 194.122191 21.3535 
" clip-path="url(#pe9023da528)" style="fill: none; stroke: #e5e5e5; stroke-linecap: square"/>
     </g>
     <g id="line2d_26">
      <path d="M 194.122191 198.21325 
" style="fill: none; stroke: #333333; stroke-width: 1.5; stroke-linecap: square"/>
      <g>
       <use xlink:href="#m496db02dd0" x="194.122191" y="198.21325" style="fill: #333333; stroke: #333333"/>
      </g>
     </g>
     <g id="text_11">
      <!-- 0.00 -->
      <g style="fill: #4d4d4d" transform="translate(184.325316 209.849875) scale(0.088 -0.088)">
       <use xlink:href="#DejaVuSans-30"/>
       <use xlink:href="#DejaVuSans-2e" transform="translate(63.623047 0)"/>
       <use xlink:href="#DejaVuSans-30" transform="translate(95.410156 0)"/>
       <use xlink:href="#DejaVuSans-30" transform="translate(159.033203 0)"/>
      </g>
     </g>
    </g>
    <g id="xtick_11">
     <g id="line2d_27">
      <path d="M 220.399678 198.21325 
L 220.399678 21.3535 
" clip-path="url(#pe9023da528)" style="fill: none; stroke: #e5e5e5; stroke-linecap: square"/>
     </g>
     <g id="line2d_28">
      <path d="M 220.399678 198.21325 
" style="fill: none; stroke: #333333; stroke-width: 1.5; stroke-linecap: square"/>
      <g>
       <use xlink:href="#m496db02dd0" x="220.399678" y="198.21325" style="fill: #333333; stroke: #333333"/>
      </g>
     </g>
     <g id="text_12">
      <!-- 0.25 -->
      <g style="fill: #4d4d4d" transform="translate(210.602803 209.849875) scale(0.088 -0.088)">
       <use xlink:href="#DejaVuSans-30"/>
       <use xlink:href="#DejaVuSans-2e" transform="translate(63.623047 0)"/>
       <use xlink:href="#DejaVuSans-32" transform="translate(95.410156 0)"/>
       <use xlink:href="#DejaVuSans-35" transform="translate(159.033203 0)"/>
      </g>
     </g>
    </g>
    <g id="xtick_12">
     <g id="line2d_29">
      <path d="M 246.677165 198.21325 
L 246.677165 21.3535 
" clip-path="url(#pe9023da528)" style="fill: none; stroke: #e5e5e5; stroke-linecap: square"/>
     </g>
     <g id="line2d_30">
      <path d="M 246.677165 198.21325 
" style="fill: none; stroke: #333333; stroke-width: 1.5; stroke-linecap: square"/>
      <g>
       <use xlink:href="#m496db02dd0" x="246.677165" y="198.21325" style="fill: #333333; stroke: #333333"/>
      </g>
     </g>
     <g id="text_13">
      <!-- 0.50 -->
      <g style="fill: #4d4d4d" transform="translate(236.88029 209.849875) scale(0.088 -0.088)">
       <use xlink:href="#DejaVuSans-30"/>
       <use xlink:href="#DejaVuSans-2e" transform="translate(63.623047 0)"/>
       <use xlink:href="#DejaVuSans-35" transform="translate(95.410156 0)"/>
       <use xlink:href="#DejaVuSans-30" transform="translate(159.033203 0)"/>
      </g>
     </g>
    </g>
    <g id="xtick_13">
     <g id="line2d_31">
      <path d="M 272.954652 198.21325 
L 272.954652 21.3535 
" clip-path="url(#pe9023da528)" style="fill: none; stroke: #e5e5e5; stroke-linecap: square"/>
     </g>
     <g id="line2d_32">
      <path d="M 272.954652 198.21325 
" style="fill: none; stroke: #333333; stroke-width: 1.5; stroke-linecap: square"/>
      <g>
       <use xlink:href="#m496db02dd0" x="272.954652" y="198.21325" style="fill: #333333; stroke: #333333"/>
      </g>
     </g>
     <g id="text_14">
      <!-- 0.75 -->
      <g style="fill: #4d4d4d" transform="translate(263.157777 209.849875) scale(0.088 -0.088)">
       <use xlink:href="#DejaVuSans-30"/>
       <use xlink:href="#DejaVuSans-2e" transform="translate(63.623047 0)"/>
       <use xlink:href="#DejaVuSans-37" transform="translate(95.410156 0)"/>
       <use xlink:href="#DejaVuSans-35" transform="translate(159.033203 0)"/>
      </g>
     </g>
    </g>
    <g id="xtick_14">
     <g id="line2d_33">
      <path d="M 299.232139 198.21325 
L 299.232139 21.3535 
" clip-path="url(#pe9023da528)" style="fill: none; stroke: #e5e5e5; stroke-linecap: square"/>
     </g>
     <g id="line2d_34">
      <path d="M 299.232139 198.21325 
" style="fill: none; stroke: #333333; stroke-width: 1.5; stroke-linecap: square"/>
      <g>
       <use xlink:href="#m496db02dd0" x="299.232139" y="198.21325" style="fill: #333333; stroke: #333333"/>
      </g>
     </g>
     <g id="text_15">
      <!-- 1.00 -->
      <g style="fill: #4d4d4d" transform="translate(289.435264 209.849875) scale(0.088 -0.088)">
       <use xlink:href="#DejaVuSans-31"/>
       <use xlink:href="#DejaVuSans-2e" transform="translate(63.623047 0)"/>
       <use xlink:href="#DejaVuSans-30" transform="translate(95.410156 0)"/>
       <use xlink:href="#DejaVuSans-30" transform="translate(159.033203 0)"/>
      </g>
     </g>
    </g>
    <g id="xtick_15">
     <g id="line2d_35">
      <path d="M 207.260934 198.21325 
L 207.260934 21.3535 
" clip-path="url(#pe9023da528)" style="fill: none; stroke: #fafafa; stroke-width: 0.5; stroke-linecap: square"/>
     </g>
    </g>
    <g id="xtick_16">
     <g id="line2d_36">
      <path d="M 233.538421 198.21325 
L 233.538421 21.3535 
" clip-path="url(#pe9023da528)" style="fill: none; stroke: #fafafa; stroke-width: 0.5; stroke-linecap: square"/>
     </g>
    </g>
    <g id="xtick_17">
     <g id="line2d_37">
      <path d="M 259.815908 198.21325 
L 259.815908 21.3535 
" clip-path="url(#pe9023da528)" style="fill: none; stroke: #fafafa; stroke-width: 0.5; stroke-linecap: square"/>
     </g>
    </g>
    <g id="xtick_18">
     <g id="line2d_38">
      <path d="M 286.093395 198.21325 
L 286.093395 21.3535 
" clip-path="url(#pe9023da528)" style="fill: none; stroke: #fafafa; stroke-width: 0.5; stroke-linecap: square"/>
     </g>
    </g>
   </g>
   <g id="matplotlib.axis_4">
    <g id="ytick_6">
     <g id="line2d_39">
      <path d="M 188.866693 177.806356 
L 304.487636 177.806356 
" clip-path="url(#pe9023da528)" style="fill: none; stroke: #e5e5e5; stroke-linecap: square"/>
     </g>
    </g>
    <g id="ytick_7">
     <g id="line2d_40">
      <path d="M 188.866693 143.794865 
L 304.487636 143.794865 
" clip-path="url(#pe9023da528)" style="fill: none; stroke: #e5e5e5; stroke-linecap: square"/>
     </g>
    </g>
    <g id="ytick_8">
     <g id="line2d_41">
      <path d="M 188.866693 109.783375 
L 304.487636 109.783375 
" clip-path="url(#pe9023da528)" style="fill: none; stroke: #e5e5e5; stroke-linecap: square"/>
     </g>
    </g>
    <g id="ytick_9">
     <g id="line2d_42">
      <path d="M 188.866693 75.771885 
L 304.487636 75.771885 
" clip-path="url(#pe9023da528)" style="fill: none; stroke: #e5e5e5; stroke-linecap: square"/>
     </g>
    </g>
    <g id="ytick_10">
     <g id="line2d_43">
      <path d="M 188.866693 41.760394 
L 304.487636 41.760394 
" clip-path="url(#pe9023da528)" style="fill: none; stroke: #e5e5e5; stroke-linecap: square"/>
     </g>
    </g>
   </g>
   <g id="PathCollection_2">
    <path d="M 278.210149 179.57881 
C 278.68021 179.57881 279.131081 179.392053 279.463463 179.05967 
C 279.795846 178.727287 279.982603 178.276416 279.982603 177.806356 
C 279.982603 177.336296 279.795846 176.885424 279.463463 176.553042 
C 279.131081 176.220659 278.68021 176.033902 278.210149 176.033902 
C 277.740089 176.033902 277.289218 176.220659 276.956835 176.553042 
C 276.624452 176.885424 276.437695 177.336296 276.437695 177.806356 
C 276.437695 178.276416 276.624452 178.727287 276.956835 179.05967 
C 277.289218 179.392053 277.740089 179.57881 278.210149 179.57881 
z
" clip-path="url(#pe9023da528)" style="fill: #f8766d; stroke: #000000; stroke-width: 0.886227"/>
    <path d="M 287.670045 145.567319 
C 288.140105 145.567319 288.590976 145.380562 288.923359 145.04818 
C 289.255742 144.715797 289.442498 144.264926 289.442498 143.794865 
C 289.442498 143.324805 289.255742 142.873934 288.923359 142.541551 
C 288.590976 142.209168 288.140105 142.022412 287.670045 142.022412 
C 287.199984 142.022412 286.749113 142.209168 286.41673 142.541551 
C 286.084348 142.873934 285.897591 143.324805 285.897591 143.794865 
C 285.897591 144.264926 286.084348 144.715797 286.41673 145.04818 
C 286.749113 145.380562 287.199984 145.567319 287.670045 145.567319 
z
" clip-path="url(#pe9023da528)" style="fill: #a3a500; stroke: #000000; stroke-width: 0.886227"/>
    <path d="M 282.414547 111.555829 
C 282.884607 111.555829 283.335479 111.369072 283.667861 111.036689 
C 284.000244 110.704306 284.187001 110.253435 284.187001 109.783375 
C 284.187001 109.313315 284.000244 108.862444 283.667861 108.530061 
C 283.335479 108.197678 282.884607 108.010921 282.414547 108.010921 
C 281.944487 108.010921 281.493616 108.197678 281.161233 108.530061 
C 280.82885 108.862444 280.642093 109.313315 280.642093 109.783375 
C 280.642093 110.253435 280.82885 110.704306 281.161233 111.036689 
C 281.493616 111.369072 281.944487 111.555829 282.414547 111.555829 
z
" clip-path="url(#pe9023da528)" style="fill: #00bf7d; stroke: #000000; stroke-width: 0.886227"/>
    <path d="M 282.414547 77.544338 
C 282.884607 77.544338 283.335479 77.357582 283.667861 77.025199 
C 284.000244 76.692816 284.187001 76.241945 284.187001 75.771885 
C 284.187001 75.301824 284.000244 74.850953 283.667861 74.51857 
C 283.335479 74.186188 282.884607 73.999431 282.414547 73.999431 
C 281.944487 73.999431 281.493616 74.186188 281.161233 74.51857 
C 280.82885 74.850953 280.642093 75.301824 280.642093 75.771885 
C 280.642093 76.241945 280.82885 76.692816 281.161233 77.025199 
C 281.493616 77.357582 281.944487 77.544338 282.414547 77.544338 
z
" clip-path="url(#pe9023da528)" style="fill: #00b0f6; stroke: #000000; stroke-width: 0.886227"/>
    <path d="M 282.414547 43.532848 
C 282.884607 43.532848 283.335479 43.346091 283.667861 43.013708 
C 284.000244 42.681326 284.187001 42.230454 284.187001 41.760394 
C 284.187001 41.290334 284.000244 40.839463 283.667861 40.50708 
C 283.335479 40.174697 282.884607 39.98794 282.414547 39.98794 
C 281.944487 39.98794 281.493616 40.174697 281.161233 40.50708 
C 280.82885 40.839463 280.642093 41.290334 280.642093 41.760394 
C 280.642093 42.230454 280.82885 42.681326 281.161233 43.013708 
C 281.493616 43.346091 281.944487 43.532848 282.414547 43.532848 
z
" clip-path="url(#pe9023da528)" style="fill: #e76bf3; stroke: #000000; stroke-width: 0.886227"/>
   </g>
  </g>
  <g id="axes_3">
   <g id="patch_5">
    <path d="M 308.807636 198.21325 
L 424.42858 198.21325 
L 424.42858 21.3535 
L 308.807636 21.3535 
z
" style="fill: #ffffff"/>
   </g>
   <g id="matplotlib.axis_5">
    <g id="xtick_19">
     <g id="line2d_44">
      <path d="M 314.063134 198.21325 
L 314.063134 21.3535 
" clip-path="url(#p969ec9f668)" style="fill: none; stroke: #e5e5e5; stroke-linecap: square"/>
     </g>
     <g id="line2d_45">
      <path d="M 314.063134 198.21325 
" style="fill: none; stroke: #333333; stroke-width: 1.5; stroke-linecap: square"/>
      <g>
       <use xlink:href="#m496db02dd0" x="314.063134" y="198.21325" style="fill: #333333; stroke: #333333"/>
      </g>
     </g>
     <g id="text_16">
      <!-- 0.00 -->
      <g style="fill: #4d4d4d" transform="translate(304.266259 209.849875) scale(0.088 -0.088)">
       <use xlink:href="#DejaVuSans-30"/>
       <use xlink:href="#DejaVuSans-2e" transform="translate(63.623047 0)"/>
       <use xlink:href="#DejaVuSans-30" transform="translate(95.410156 0)"/>
       <use xlink:href="#DejaVuSans-30" transform="translate(159.033203 0)"/>
      </g>
     </g>
    </g>
    <g id="xtick_20">
     <g id="line2d_46">
      <path d="M 340.340621 198.21325 
L 340.340621 21.3535 
" clip-path="url(#p969ec9f668)" style="fill: none; stroke: #e5e5e5; stroke-linecap: square"/>
     </g>
     <g id="line2d_47">
      <path d="M 340.340621 198.21325 
" style="fill: none; stroke: #333333; stroke-width: 1.5; stroke-linecap: square"/>
      <g>
       <use xlink:href="#m496db02dd0" x="340.340621" y="198.21325" style="fill: #333333; stroke: #333333"/>
      </g>
     </g>
     <g id="text_17">
      <!-- 0.25 -->
      <g style="fill: #4d4d4d" transform="translate(330.543746 209.849875) scale(0.088 -0.088)">
       <use xlink:href="#DejaVuSans-30"/>
       <use xlink:href="#DejaVuSans-2e" transform="translate(63.623047 0)"/>
       <use xlink:href="#DejaVuSans-32" transform="translate(95.410156 0)"/>
       <use xlink:href="#DejaVuSans-35" transform="translate(159.033203 0)"/>
      </g>
     </g>
    </g>
    <g id="xtick_21">
     <g id="line2d_48">
      <path d="M 366.618108 198.21325 
L 366.618108 21.3535 
" clip-path="url(#p969ec9f668)" style="fill: none; stroke: #e5e5e5; stroke-linecap: square"/>
     </g>
     <g id="line2d_49">
      <path d="M 366.618108 198.21325 
" style="fill: none; stroke: #333333; stroke-width: 1.5; stroke-linecap: square"/>
      <g>
       <use xlink:href="#m496db02dd0" x="366.618108" y="198.21325" style="fill: #333333; stroke: #333333"/>
      </g>
     </g>
     <g id="text_18">
      <!-- 0.50 -->
      <g style="fill: #4d4d4d" transform="translate(356.821233 209.849875) scale(0.088 -0.088)">
       <use xlink:href="#DejaVuSans-30"/>
       <use xlink:href="#DejaVuSans-2e" transform="translate(63.623047 0)"/>
       <use xlink:href="#DejaVuSans-35" transform="translate(95.410156 0)"/>
       <use xlink:href="#DejaVuSans-30" transform="translate(159.033203 0)"/>
      </g>
     </g>
    </g>
    <g id="xtick_22">
     <g id="line2d_50">
      <path d="M 392.895595 198.21325 
L 392.895595 21.3535 
" clip-path="url(#p969ec9f668)" style="fill: none; stroke: #e5e5e5; stroke-linecap: square"/>
     </g>
     <g id="line2d_51">
      <path d="M 392.895595 198.21325 
" style="fill: none; stroke: #333333; stroke-width: 1.5; stroke-linecap: square"/>
      <g>
       <use xlink:href="#m496db02dd0" x="392.895595" y="198.21325" style="fill: #333333; stroke: #333333"/>
      </g>
     </g>
     <g id="text_19">
      <!-- 0.75 -->
      <g style="fill: #4d4d4d" transform="translate(383.09872 209.849875) scale(0.088 -0.088)">
       <use xlink:href="#DejaVuSans-30"/>
       <use xlink:href="#DejaVuSans-2e" transform="translate(63.623047 0)"/>
       <use xlink:href="#DejaVuSans-37" transform="translate(95.410156 0)"/>
       <use xlink:href="#DejaVuSans-35" transform="translate(159.033203 0)"/>
      </g>
     </g>
    </g>
    <g id="xtick_23">
     <g id="line2d_52">
      <path d="M 419.173082 198.21325 
L 419.173082 21.3535 
" clip-path="url(#p969ec9f668)" style="fill: none; stroke: #e5e5e5; stroke-linecap: square"/>
     </g>
     <g id="line2d_53">
      <path d="M 419.173082 198.21325 
" style="fill: none; stroke: #333333; stroke-width: 1.5; stroke-linecap: square"/>
      <g>
       <use xlink:href="#m496db02dd0" x="419.173082" y="198.21325" style="fill: #333333; stroke: #333333"/>
      </g>
     </g>
     <g id="text_20">
      <!-- 1.00 -->
      <g style="fill: #4d4d4d" transform="translate(409.376207 209.849875) scale(0.088 -0.088)">
       <use xlink:href="#DejaVuSans-31"/>
       <use xlink:href="#DejaVuSans-2e" transform="translate(63.623047 0)"/>
       <use xlink:href="#DejaVuSans-30" transform="translate(95.410156 0)"/>
       <use xlink:href="#DejaVuSans-30" transform="translate(159.033203 0)"/>
      </g>
     </g>
    </g>
    <g id="xtick_24">
     <g id="line2d_54">
      <path d="M 327.201877 198.21325 
L 327.201877 21.3535 
" clip-path="url(#p969ec9f668)" style="fill: none; stroke: #fafafa; stroke-width: 0.5; stroke-linecap: square"/>
     </g>
    </g>
    <g id="xtick_25">
     <g id="line2d_55">
      <path d="M 353.479364 198.21325 
L 353.479364 21.3535 
" clip-path="url(#p969ec9f668)" style="fill: none; stroke: #fafafa; stroke-width: 0.5; stroke-linecap: square"/>
     </g>
    </g>
    <g id="xtick_26">
     <g id="line2d_56">
      <path d="M 379.756851 198.21325 
L 379.756851 21.3535 
" clip-path="url(#p969ec9f668)" style="fill: none; stroke: #fafafa; stroke-width: 0.5; stroke-linecap: square"/>
     </g>
    </g>
    <g id="xtick_27">
     <g id="line2d_57">
      <path d="M 406.034339 198.21325 
L 406.034339 21.3535 
" clip-path="url(#p969ec9f668)" style="fill: none; stroke: #fafafa; stroke-width: 0.5; stroke-linecap: square"/>
     </g>
    </g>
   </g>
   <g id="matplotlib.axis_6">
    <g id="ytick_11">
     <g id="line2d_58">
      <path d="M 308.807636 177.806356 
L 424.42858 177.806356 
" clip-path="url(#p969ec9f668)" style="fill: none; stroke: #e5e5e5; stroke-linecap: square"/>
     </g>
    </g>
    <g id="ytick_12">
     <g id="line2d_59">
      <path d="M 308.807636 143.794865 
L 424.42858 143.794865 
" clip-path="url(#p969ec9f668)" style="fill: none; stroke: #e5e5e5; stroke-linecap: square"/>
     </g>
    </g>
    <g id="ytick_13">
     <g id="line2d_60">
      <path d="M 308.807636 109.783375 
L 424.42858 109.783375 
" clip-path="url(#p969ec9f668)" style="fill: none; stroke: #e5e5e5; stroke-linecap: square"/>
     </g>
    </g>
    <g id="ytick_14">
     <g id="line2d_61">
      <path d="M 308.807636 75.771885 
L 424.42858 75.771885 
" clip-path="url(#p969ec9f668)" style="fill: none; stroke: #e5e5e5; stroke-linecap: square"/>
     </g>
    </g>
    <g id="ytick_15">
     <g id="line2d_62">
      <path d="M 308.807636 41.760394 
L 424.42858 41.760394 
" clip-path="url(#p969ec9f668)" style="fill: none; stroke: #e5e5e5; stroke-linecap: square"/>
     </g>
    </g>
   </g>
   <g id="PathCollection_3">
    <path d="M 409.713187 179.57881 
C 410.183247 179.57881 410.634118 179.392053 410.966501 179.05967 
C 411.298884 178.727287 411.485641 178.276416 411.485641 177.806356 
C 411.485641 177.336296 411.298884 176.885424 410.966501 176.553042 
C 410.634118 176.220659 410.183247 176.033902 409.713187 176.033902 
C 409.243127 176.033902 408.792255 176.220659 408.459873 176.553042 
C 408.12749 176.885424 407.940733 177.336296 407.940733 177.806356 
C 407.940733 178.276416 408.12749 178.727287 408.459873 179.05967 
C 408.792255 179.392053 409.243127 179.57881 409.713187 179.57881 
z
" clip-path="url(#p969ec9f668)" style="fill: #f8766d; stroke: #000000; stroke-width: 0.886227"/>
    <path d="M 394.997794 145.567319 
C 395.467854 145.567319 395.918725 145.380562 396.251108 145.04818 
C 396.583491 144.715797 396.770248 144.264926 396.770248 143.794865 
C 396.770248 143.324805 396.583491 142.873934 396.251108 142.541551 
C 395.918725 142.209168 395.467854 142.022412 394.997794 142.022412 
C 394.527734 142.022412 394.076863 142.209168 393.74448 142.541551 
C 393.412097 142.873934 393.22534 143.324805 393.22534 143.794865 
C 393.22534 144.264926 393.412097 144.715797 393.74448 145.04818 
C 394.076863 145.380562 394.527734 145.567319 394.997794 145.567319 
z
" clip-path="url(#p969ec9f668)" style="fill: #a3a500; stroke: #000000; stroke-width: 0.886227"/>
    <path d="M 402.35549 111.555829 
C 402.825551 111.555829 403.276422 111.369072 403.608805 111.036689 
C 403.941187 110.704306 404.127944 110.253435 404.127944 109.783375 
C 404.127944 109.313315 403.941187 108.862444 403.608805 108.530061 
C 403.276422 108.197678 402.825551 108.010921 402.35549 108.010921 
C 401.88543 108.010921 401.434559 108.197678 401.102176 108.530061 
C 400.769793 108.862444 400.583037 109.313315 400.583037 109.783375 
C 400.583037 110.253435 400.769793 110.704306 401.102176 111.036689 
C 401.434559 111.369072 401.88543 111.555829 402.35549 111.555829 
z
" clip-path="url(#p969ec9f668)" style="fill: #00bf7d; stroke: #000000; stroke-width: 0.886227"/>
    <path d="M 402.35549 77.544338 
C 402.825551 77.544338 403.276422 77.357582 403.608805 77.025199 
C 403.941187 76.692816 404.127944 76.241945 404.127944 75.771885 
C 404.127944 75.301824 403.941187 74.850953 403.608805 74.51857 
C 403.276422 74.186188 402.825551 73.999431 402.35549 73.999431 
C 401.88543 73.999431 401.434559 74.186188 401.102176 74.51857 
C 400.769793 74.850953 400.583037 75.301824 400.583037 75.771885 
C 400.583037 76.241945 400.769793 76.692816 401.102176 77.025199 
C 401.434559 77.357582 401.88543 77.544338 402.35549 77.544338 
z
" clip-path="url(#p969ec9f668)" style="fill: #00b0f6; stroke: #000000; stroke-width: 0.886227"/>
    <path d="M 402.35549 43.532848 
C 402.825551 43.532848 403.276422 43.346091 403.608805 43.013708 
C 403.941187 42.681326 404.127944 42.230454 404.127944 41.760394 
C 404.127944 41.290334 403.941187 40.839463 403.608805 40.50708 
C 403.276422 40.174697 402.825551 39.98794 402.35549 39.98794 
C 401.88543 39.98794 401.434559 40.174697 401.102176 40.50708 
C 400.769793 40.839463 400.583037 41.290334 400.583037 41.760394 
C 400.583037 42.230454 400.769793 42.681326 401.102176 43.013708 
C 401.434559 43.346091 401.88543 43.532848 402.35549 43.532848 
z
" clip-path="url(#p969ec9f668)" style="fill: #e76bf3; stroke: #000000; stroke-width: 0.886227"/>
   </g>
  </g>
  <g id="patch_6">
   <path d="M 68.92575 198.21325 
L 184.546693 198.21325 
L 184.546693 21.3535 
L 68.92575 21.3535 
L 68.92575 198.21325 
z
" style="fill: none; stroke: #7f7f7f; stroke-linejoin: miter"/>
  </g>
  <g id="patch_7">
   <path d="M 188.866693 198.21325 
L 304.487636 198.21325 
L 304.487636 21.3535 
L 188.866693 21.3535 
L 188.866693 198.21325 
z
" style="fill: none; stroke: #7f7f7f; stroke-linejoin: miter"/>
  </g>
  <g id="patch_8">
   <path d="M 308.807636 198.21325 
L 424.42858 198.21325 
L 424.42858 21.3535 
L 308.807636 21.3535 
L 308.807636 198.21325 
z
" style="fill: none; stroke: #7f7f7f; stroke-linejoin: miter"/>
  </g>
  <g id="patch_9">
   <path d="M 68.92575 21.3535 
L 184.546693 21.3535 
L 184.546693 4.32 
L 68.92575 4.32 
z
" style="fill: #cccccc; stroke: #7f7f7f; stroke-linejoin: miter"/>
  </g>
  <g id="text_21">
   <!-- f1-score -->
   <g style="fill: #1a1a1a" transform="translate(108.979472 16.180062) scale(0.088 -0.088)">
    <defs>
     <path id="DejaVuSans-66" d="M 2375 4863 
L 2375 4384 
L 1825 4384 
Q 1516 4384 1395 4259 
Q 1275 4134 1275 3809 
L 1275 3500 
L 2222 3500 
L 2222 3053 
L 1275 3053 
L 1275 0 
L 697 0 
L 697 3053 
L 147 3053 
L 147 3500 
L 697 3500 
L 697 3744 
Q 697 4328 969 4595 
Q 1241 4863 1831 4863 
L 2375 4863 
z
" transform="scale(0.015625)"/>
     <path id="DejaVuSans-2d" d="M 313 2009 
L 1997 2009 
L 1997 1497 
L 313 1497 
L 313 2009 
z
" transform="scale(0.015625)"/>
    </defs>
    <use xlink:href="#DejaVuSans-66"/>
    <use xlink:href="#DejaVuSans-31" transform="translate(35.205078 0)"/>
    <use xlink:href="#DejaVuSans-2d" transform="translate(98.828125 0)"/>
    <use xlink:href="#DejaVuSans-73" transform="translate(134.912109 0)"/>
    <use xlink:href="#DejaVuSans-63" transform="translate(187.011719 0)"/>
    <use xlink:href="#DejaVuSans-6f" transform="translate(241.992188 0)"/>
    <use xlink:href="#DejaVuSans-72" transform="translate(303.173828 0)"/>
    <use xlink:href="#DejaVuSans-65" transform="translate(342.037109 0)"/>
   </g>
  </g>
  <g id="patch_10">
   <path d="M 188.866693 21.3535 
L 304.487636 21.3535 
L 304.487636 4.32 
L 188.866693 4.32 
z
" style="fill: #cccccc; stroke: #7f7f7f; stroke-linejoin: miter"/>
  </g>
  <g id="text_22">
   <!-- precision -->
   <g style="fill: #1a1a1a" transform="translate(226.829727 16.180062) scale(0.088 -0.088)">
    <defs>
     <path id="DejaVuSans-70" d="M 1159 525 
L 1159 -1331 
L 581 -1331 
L 581 3500 
L 1159 3500 
L 1159 2969 
Q 1341 3281 1617 3432 
Q 1894 3584 2278 3584 
Q 2916 3584 3314 3078 
Q 3713 2572 3713 1747 
Q 3713 922 3314 415 
Q 2916 -91 2278 -91 
Q 1894 -91 1617 61 
Q 1341 213 1159 525 
z
M 3116 1747 
Q 3116 2381 2855 2742 
Q 2594 3103 2138 3103 
Q 1681 3103 1420 2742 
Q 1159 2381 1159 1747 
Q 1159 1113 1420 752 
Q 1681 391 2138 391 
Q 2594 391 2855 752 
Q 3116 1113 3116 1747 
z
" transform="scale(0.015625)"/>
     <path id="DejaVuSans-6e" d="M 3513 2113 
L 3513 0 
L 2938 0 
L 2938 2094 
Q 2938 2591 2744 2837 
Q 2550 3084 2163 3084 
Q 1697 3084 1428 2787 
Q 1159 2491 1159 1978 
L 1159 0 
L 581 0 
L 581 3500 
L 1159 3500 
L 1159 2956 
Q 1366 3272 1645 3428 
Q 1925 3584 2291 3584 
Q 2894 3584 3203 3211 
Q 3513 2838 3513 2113 
z
" transform="scale(0.015625)"/>
    </defs>
    <use xlink:href="#DejaVuSans-70"/>
    <use xlink:href="#DejaVuSans-72" transform="translate(63.476562 0)"/>
    <use xlink:href="#DejaVuSans-65" transform="translate(102.339844 0)"/>
    <use xlink:href="#DejaVuSans-63" transform="translate(163.863281 0)"/>
    <use xlink:href="#DejaVuSans-69" transform="translate(218.84375 0)"/>
    <use xlink:href="#DejaVuSans-73" transform="translate(246.626953 0)"/>
    <use xlink:href="#DejaVuSans-69" transform="translate(298.726562 0)"/>
    <use xlink:href="#DejaVuSans-6f" transform="translate(326.509766 0)"/>
    <use xlink:href="#DejaVuSans-6e" transform="translate(387.691406 0)"/>
   </g>
  </g>
  <g id="patch_11">
   <path d="M 308.807636 21.3535 
L 424.42858 21.3535 
L 424.42858 4.32 
L 308.807636 4.32 
z
" style="fill: #cccccc; stroke: #7f7f7f; stroke-linejoin: miter"/>
  </g>
  <g id="text_23">
   <!-- recall -->
   <g style="fill: #1a1a1a" transform="translate(354.640483 16.180062) scale(0.088 -0.088)">
    <use xlink:href="#DejaVuSans-72"/>
    <use xlink:href="#DejaVuSans-65" transform="translate(38.863281 0)"/>
    <use xlink:href="#DejaVuSans-63" transform="translate(100.386719 0)"/>
    <use xlink:href="#DejaVuSans-61" transform="translate(155.367188 0)"/>
    <use xlink:href="#DejaVuSans-6c" transform="translate(216.646484 0)"/>
    <use xlink:href="#DejaVuSans-6c" transform="translate(244.429688 0)"/>
   </g>
  </g>
 </g>
 <defs>
  <clipPath id="pc7358a5793">
   <rect x="68.92575" y="21.3535" width="115.620943" height="176.85975"/>
  </clipPath>
  <clipPath id="pe9023da528">
   <rect x="188.866693" y="21.3535" width="115.620943" height="176.85975"/>
  </clipPath>
  <clipPath id="p969ec9f668">
   <rect x="308.807636" y="21.3535" width="115.620943" height="176.85975"/>
  </clipPath>
 </defs>
</svg>
